<?xml version="1.0" standalone="no"?>
<!DOCTYPE svg PUBLIC "-//W3C//DTD SVG 1.1//EN" "http://www.w3.org/Graphics/SVG/1.1/DTD/svg11.dtd" >
<svg xmlns="http://www.w3.org/2000/svg">
<metadata>
This is a custom SVG webfont generated by Font Squirrel.
Copyright   : Copyright c 2001 by Bigelow  Holmes Inc Instructions copyright c 2001 by URW
Designer    : Kris Holmes and Charles Bigelow
Foundry     : Bigelow  Holmes Inc
Foundry URL : httpwwwurwppde
</metadata>
<defs>
<font id="webfontzBBKAnrs" horiz-adv-x="1228" vert-adv-y="2048" >
<font-face units-per-em="2048" ascent="1638" descent="-410" />
<missing-glyph horiz-adv-x="500" />
<glyph unicode=" " vert-adv-y="0" />
<glyph unicode="!" vert-adv-y="2504" d="M467 0v248h295v-248h-295zM467 1184v297h295v-297l-64 -764h-170z" />
<glyph unicode="&#x22;" vert-adv-y="2504" d="M195 1579h297l-50 -543h-196zM737 1579h297l-49 -543h-197z" />
<glyph unicode="#" vert-adv-y="2504" d="M49 432l35 172h213l65 273h-225l35 172h234l110 432h178l-106 -432h207l106 432h178l-108 -432h209l-33 -172h-217l-70 -273h234l-37 -172h-242l-108 -432h-181l113 432h-209l-111 -432h-178l111 432h-203zM475 604h207l68 273h-207z" />
<glyph unicode="$" vert-adv-y="2504" d="M109 55v328h174l22 -150q84 -37 174 -55v508q-2 2 -5 4t-7 5t-10 7l-13 11q-109 82 -161 131q-133 127 -133 272q0 174 143 279q106 74 262 86v196h172v-196q147 -18 264 -51v-295h-172l-24 151q-35 14 -68 17v-467q182 -123 252 -205q86 -98 86 -230q0 -163 -98 -264 q-49 -51 -123 -84t-193 -53v-197h-172v197q-237 24 -370 55zM414 1147q0 -98 141 -193v349q-141 -25 -141 -156zM651 180l23 4q51 8 88 62q31 43 31 104q0 115 -142 219v-389z" />
<glyph unicode="%" vert-adv-y="2504" d="M0 1110q0 143 74 246q92 125 245 125q141 0 234 -103q90 -98 90 -262t-90 -270q-88 -106 -231 -107q-141 0 -232 105q-90 102 -90 266zM45 -37l983 1555h158l-983 -1555h-158zM231 1110q0 -197 91 -197q88 0 88 191q0 205 -88 205q-91 0 -91 -199zM588 369q0 147 71 245 q92 125 248 125q141 0 234 -100q90 -98 90 -262t-90 -271q-88 -106 -234 -106q-141 0 -229 102q-90 103 -90 267zM819 371q0 -199 90 -199q88 0 88 190q0 205 -90 205q-88 1 -88 -196z" />
<glyph unicode="&#x26;" vert-adv-y="2504" d="M45 408q0 205 119 342q70 84 203 149q-102 205 -103 318q0 129 92 215q89 86 228 86q133 0 219 -91q84 -86 84 -225q0 -129 -94 -235q-53 -61 -166 -138q104 -227 245 -448q61 117 62 256v43h-105v172h379v-172h-106q0 -240 -135 -436l55 -72h125v-172h-277l-59 86 q-131 -123 -327.5 -123t-317.5 123q-121 125 -121 322zM281 479q0 -131 79.5 -217t206.5 -86q86 0 146 41q-170 281 -281 528q-151 -96 -151 -266zM489 1233q0 -74 64 -225q6 -18 10 -27q98 123 99 240q0 125 -86.5 125t-86.5 -113z" />
<glyph unicode="'" vert-adv-y="2504" d="M442 1579h344l-73 -616h-197z" />
<glyph unicode="(" vert-adv-y="2504" d="M193 639q0 461 323 747q129 115 285 160q102 31 231 33v-172q-227 -43 -364 -207q-178 -215 -179 -561q0 -362 199 -582q131 -145 344 -180v-174q-231 6 -422 129q-417 266 -417 807z" />
<glyph unicode=")" vert-adv-y="2504" d="M197 -123q229 43 364 205q178 215 178 561q0 365 -198 584q-131 145 -344 180v172q231 -6 421 -129q418 -266 418 -807q0 -459 -323 -745q-129 -115 -285 -160q-111 -33 -231 -35v174z" />
<glyph unicode="*" vert-adv-y="2504" d="M154 1038l75 254l291 -174q-31 -41 -31 -78v-4v-4v-10zM256 737l254 230q28 -43 80 -56l-109 -315zM483 1481h269l-86 -332q-31 12 -52 12q-25 0 -49 -10zM639 911q47 8 82 56l254 -224l-219 -151zM711 1114l295 180l69 -256l-336 -12v8v2v4q1 35 -28 74z" />
<glyph unicode="+" vert-adv-y="2504" d="M98 518v199h418v416h199v-416h415v-199h-415v-418h-199v418h-418z" />
<glyph unicode="," vert-adv-y="2504" d="M442 0v344h344v-283q0 -229 -69.5 -317t-253.5 -88h-21v123h15q84 0 104 63q16 47 17 158h-136z" />
<glyph unicode="-" vert-adv-y="2504" d="M147 518v199h934v-199h-934z" />
<glyph unicode="." vert-adv-y="2504" d="M442 0v344h344v-344h-344z" />
<glyph unicode="/" vert-adv-y="2504" d="M0 -297l1010 1876h219l-1010 -1876h-219z" />
<glyph unicode="0" vert-adv-y="2504" d="M86 741q0 367 139.5 572t389 205t389.5 -203q139 -205 139 -572q0 -373 -139 -577q-139 -203 -398 -203q-217 0 -352 166q-168 211 -168 612zM408 743q0 -608 210 -608q203 0 203 617q0 217 -41 405q-23 96 -73 148q-41 41 -93 41q-206 -1 -206 -603z" />
<glyph unicode="1" vert-adv-y="2504" d="M147 0v172h340v1028l-340 -98v172l637 231v-1333h346v-172h-983z" />
<glyph unicode="2" vert-adv-y="2504" d="M188 0v211q74 141 199 287l213 252q174 205 174 370q0 225 -219 226q-88 0 -184 -43l-21 -201h-155v342q207 74 387 74q219 0 340 -109q121 -106 120 -299q0 -137 -65 -233q-68 -92 -174 -195l-113 -107q-172 -170 -221 -327h569v-248h-850z" />
<glyph unicode="3" vert-adv-y="2504" d="M172 14v314h186l25 -158q109 -33 164 -33q104 0 166 68q61 61 61 176q0 143 -98 225q-100 84 -268 84h-101v174h101q319 0 319 262q0 219 -197 220q-53 0 -135 -29l-24 -158h-187v295q225 63 396 64q211 0 337.5 -98.5t126.5 -258.5t-124 -260q-74 -59 -222 -106 q162 -31 263 -119q133 -121 133 -283q0 -193 -156 -311q-152 -119 -401 -119q-140 0 -365 51z" />
<glyph unicode="4" vert-adv-y="2504" d="M72 408v190l630 901h271v-883h174v-208h-174v-236h147v-172h-690v172h272v236h-630zM305 616h397v570z" />
<glyph unicode="5" vert-adv-y="2504" d="M233 18v310h187l24 -156q63 -37 121 -37q92 0 152 70q57 66 57 184q0 350 -401 350q-25 0 -107 -8v750h805v-246h-633v-322q287 -4 447 -102q209 -129 209 -377q0 -206 -154 -338q-152 -133 -383 -133q-131 0 -324 55z" />
<glyph unicode="6" vert-adv-y="2504" d="M106 688q0 373 173 600q174 229 456 230q127 0 334 -45v-314h-184l-25 160q-61 27 -125 27q-162 0 -250 -175q-68 -131 -63 -313v-57q57 76 117 112q86 55 196 56q181 0 295 -135q117 -135 117 -347q0 -233 -137.5 -378.5t-356.5 -145.5q-252 0 -399.5 194.5 t-147.5 530.5zM459 455q0 -150 51 -234q52 -86 141 -86q176 0 176 309q0 315 -178 316q-190 0 -190 -305z" />
<glyph unicode="7" vert-adv-y="2504" d="M129 1235v246h971v-199l-164 -227q-395 -549 -424 -1055h-317q0 154 81 342q86 195 299 512l254 381h-700z" />
<glyph unicode="8" vert-adv-y="2504" d="M94 362q0 150 109 277q65 77 190 160q-117 82 -162 141q-51 70 -51 182q0 176 125 287q127 109 328 109q194 0 307 -93q117 -92 117 -241q0 -111 -84 -219q-51 -68 -146 -144q166 -98 228 -172q82 -94 82 -233q0 -190 -152 -324q-150 -129 -377 -129t-370.5 110.5 t-143.5 288.5zM389 406q0 -123 70 -195q72 -76 182 -76q90 0 154 60q61 59 61 145q0 74 -53 133q-40 46 -129 111l-154 112q-131 -138 -131 -290zM455 1184q0 -104 125 -205l94 -76q113 137 112 248q0 195 -172 195q-159 0 -159 -162z" />
<glyph unicode="9" vert-adv-y="2504" d="M82 993q0 233 137 377q138 147 356 148q252 0 400 -195q145 -190 145 -532q0 -375 -170 -601q-172 -227 -456 -227q-141 0 -334 45v314h184l25 -158q68 -29 123 -29q162 0 251 174q68 133 66 312l-2 61q-127 -170 -315 -170q-176 0 -293 135t-117 346zM401 1036 q0 -313 179 -313q190 0 190 303q0 150 -51 234q-52 86 -141 86q-177 -1 -177 -310z" />
<glyph unicode=":" vert-adv-y="2504" d="M442 0v344h344v-344h-344zM442 739v346h344v-346h-344z" />
<glyph unicode=";" vert-adv-y="2504" d="M442 0v344h344v-283q0 -229 -69.5 -317t-253.5 -88h-21v123h15q84 0 104 63q16 47 17 158h-136zM442 739v346h344v-346h-344z" />
<glyph unicode="&#x3c;" vert-adv-y="2504" d="M98 623l1032 612v-223l-655 -389l655 -398v-225z" />
<glyph unicode="=" vert-adv-y="2504" d="M102 307v199h1024v-199h-1024zM102 727v199h1024v-199h-1024z" />
<glyph unicode="&#x3e;" vert-adv-y="2504" d="M98 0v221l656 389l-656 398v227l1032 -625z" />
<glyph unicode="?" vert-adv-y="2504" d="M127 1122v330q279 66 448 66q250 0 392 -80q143 -80 143 -248q0 -137 -133 -242l-72 -53l-57 -49q-104 -86 -141 -160q-35 -70 -35 -186v-80h-297v39q0 129 45 215q45 88 178 209l59 53q133 121 134 225q0 102 -82 148q-65 37 -172 37q-102 0 -211 -46l-25 -178h-174z M375 0v248h297v-248h-297z" />
<glyph unicode="@" vert-adv-y="2504" d="M43 733q0 350 180 567.5t477 217.5q227 0 328 -107q102 -106 102 -342v-600h87v-172h-261v307h-12q-76 -182 -129 -250q-63 -76 -166 -75q-117 0 -190.5 104t-73.5 270q0 219 123 371q123 150 301 150q53 0 141 -21q-22 104 -86 154q-66 51 -184 51q-199 0 -332 -176 q-131 -174 -131 -443q0 -276 133 -446t346 -170q115 0 260 63v-180q-135 -43 -254 -43q-298 0 -479 209q-180 207 -180 561zM584 684q0 -229 100 -229q119 0 272 432v125q-68 23 -135 22q-237 0 -237 -350z" />
<glyph unicode="A" vert-adv-y="2504" d="M25 0v172h61l375 1309h307l375 -1309h61v-172h-491v172h135l-68 236h-446l-68 -236h135v-172h-376zM383 580h348l-174 610h-2z" />
<glyph unicode="B" vert-adv-y="2504" d="M37 0v172h98v1137h-98v172h555q270 0 391 -76q117 -74 117 -246q0 -156 -117 -262q-74 -68 -203 -123q163 -37 258 -123q119 -106 119 -270q0 -381 -524 -381h-596zM430 172h82q181 0 252 49q72 49 72 172q0 287 -355 287h-51v-508zM430 852h45q139 0 223 73.5t84 196.5 q0 119 -77 156q-68 31 -222 31h-53v-457z" />
<glyph unicode="C" vert-adv-y="2504" d="M49 729q0 352 193 569q190 219 510 220q170 0 399 -68v-426h-172l-27 256q-90 66 -188 66q-178 0 -287 -162q-106 -158 -106 -426q0 -287 118 -443q121 -158 332 -157q158 0 361 102v-215q-201 -82 -410 -82q-332 0 -526 207q-197 209 -197 559z" />
<glyph unicode="D" vert-adv-y="2504" d="M37 0v172h98v1137h-98v172h440q340 0 522 -183q180 -180 181 -528q0 -365 -193 -567q-190 -203 -545 -203h-405zM432 172h45q381 0 381 582q0 254 -78 389q-90 158 -305 164l-43 2v-1137z" />
<glyph unicode="E" vert-adv-y="2504" d="M37 0v172h147v1137h-147v172h1073v-371h-184v199h-445v-482h236v123h172v-420h-172v123h-236v-469h506v224h184v-408h-1134z" />
<glyph unicode="F" vert-adv-y="2504" d="M37 0v172h147v1137h-147v172h1122v-371h-184v199h-494v-533h285v125h172v-420h-172v123h-285v-420h199v-184h-643z" />
<glyph unicode="G" vert-adv-y="2504" d="M49 729q0 352 193 569q190 219 508 220q164 0 389 -68v-426h-174l-25 256q-90 66 -184 66q-172 0 -281 -164q-106 -162 -106 -424q0 -268 112 -432q113 -166 293 -166q31 0 98 10v342h-184v172h481v-635q-199 -86 -421 -86q-315 0 -506 213q-193 211 -193 553z" />
<glyph unicode="H" vert-adv-y="2504" d="M37 0v172h98v1137h-98v172h493v-172h-98v-457h365v457h-99v172h494v-172h-98v-1137h98v-172h-494v172h99v494h-365v-494h98v-172h-493z" />
<glyph unicode="I" vert-adv-y="2504" d="M123 0v172h344v1137h-344v172h983v-172h-344v-1137h344v-172h-983z" />
<glyph unicode="J" vert-adv-y="2504" d="M111 31v487h172l24 -319q98 -61 170 -62q102 0 137 74q27 59 27 192v906h-322v172h865v-172h-246v-926q0 -420 -438 -420q-131 0 -312 47z" />
<glyph unicode="K" vert-adv-y="2504" d="M37 0v172h98v1137h-98v172h493v-172h-100v-533h27l436 533h-111v172h443v-172h-115l-405 -490l483 -647h41v-172h-490v172h123l-405 545h-27v-545h100v-172h-493z" />
<glyph unicode="L" vert-adv-y="2504" d="M49 0v172h197v1137h-197v172h690v-172h-196v-1125h477v310h160v-494h-1131z" />
<glyph unicode="M" vert-adv-y="2504" d="M12 0v172h74v1137h-74v172h369l229 -963l244 963h363v-172h-68v-1137h68v-172h-439v172h135v926h-6l-227 -914h-201l-203 840h-6v-852h113v-172h-371z" />
<glyph unicode="N" vert-adv-y="2504" d="M37 0v172h98v1137h-98v172h297l588 -1000v828h-150v172h445v-172h-99v-1309h-196l-588 993v-821h147v-172h-444z" />
<glyph unicode="O" vert-adv-y="2504" d="M49 741q0 379 146 576q147 201 419 201q270 0 418 -201q147 -199 148 -578q0 -776 -574 -776q-240 0 -381 164q-176 206 -176 614zM356 743q0 -608 265 -608q250 0 249 610q0 600 -256 601q-258 -1 -258 -603z" />
<glyph unicode="P" vert-adv-y="2504" d="M37 0v172h199v1137h-199v172h635q279 0 399 -95q125 -94 125 -303q0 -240 -162 -376q-164 -139 -442 -140h-62v-395h297v-172h-790zM530 739h37q315 0 316 303q0 150 -64 207q-66 59 -225 60h-64v-570z" />
<glyph unicode="Q" vert-adv-y="2504" d="M49 737q0 383 146 580q147 201 419 201q270 0 418 -201q147 -199 148 -582q0 -324 -101 -499q-74 -131 -225 -228q186 -78 371 -90q-70 -158 -185 -285q-209 86 -374 328h-17q-600 0 -600 776zM356 743q0 -608 265 -608q250 0 249 610q0 600 -256 601q-258 -1 -258 -603z " />
<glyph unicode="R" vert-adv-y="2504" d="M37 0v172h98v1137h-98v172h543q184 0 258 -21q82 -23 141 -84q92 -94 92 -253.5t-106 -280.5q-66 -76 -185 -146l363 -524h74v-172h-312l-432 616h-41v-444h172v-172h-567zM432 791h49q121 0 193 79q72 84 71.5 223.5t-65.5 180.5q-57 35 -191 35h-57v-518z" />
<glyph unicode="S" vert-adv-y="2504" d="M113 55v385h172l24 -211q170 -94 285 -94q123 0 182 66q45 47 45 129q0 115 -141 198l-39 23l-16 10l-13 8l-137 84q-193 119 -264.5 213.5t-71.5 229.5q0 197 131 309.5t357 112.5q180 0 409 -72v-377h-172l-24 217q-113 59 -211 60q-82 0 -135 -54q-51 -51 -52 -133 q0 -78 60 -131q51 -45 157 -108l144 -89q205 -125 258 -194q57 -72 57 -207q0 -221 -151.5 -344t-409.5 -123q-163 0 -444 92z" />
<glyph unicode="T" vert-adv-y="2504" d="M47 1085v396h1135v-396h-185v224h-233v-1137h221v-172h-741v172h223v1137h-236v-224h-184z" />
<glyph unicode="U" vert-adv-y="2504" d="M20 1309v172h494v-172h-98v-744q0 -246 57 -336q58 -92 209 -92q150 0 192 99q37 84 37 272v801h-98v172h395v-172h-98v-766q0 -207 -31 -305q-31 -102 -112 -172q-121 -102 -336 -103q-291 0 -424 170q-47 59 -66 133q-20 84 -20 230v813h-101z" />
<glyph unicode="V" vert-adv-y="2504" d="M12 1309v172h486v-172h-127l291 -1008l311 1008h-125v172h369v-172h-76l-404 -1309h-291l-376 1309h-58z" />
<glyph unicode="W" vert-adv-y="2504" d="M12 1309v172h387v-172h-90l84 -789h6l119 752h230l135 -760h6l90 797h-57v172h295v-172h-62l-145 -1309h-244l-162 866l-143 -866h-248l-141 1309h-60z" />
<glyph unicode="X" vert-adv-y="2504" d="M12 0v172h82l375 563l-322 574h-110v172h555v-172h-117l184 -324l195 324h-94v172h420v-172h-107l-319 -492l364 -645h99v-172h-543v172h112l-223 397l-252 -397h97v-172h-396z" />
<glyph unicode="Y" vert-adv-y="2504" d="M14 1309v172h543v-172h-94l242 -424l219 424h-103v172h396v-172h-87l-348 -660v-477h246v-172h-788v172h245v477l-379 660h-92z" />
<glyph unicode="Z" vert-adv-y="2504" d="M111 0v184l667 1125h-444v-224h-187v396h959v-187l-664 -1110h492v248h184v-432h-1007z" />
<glyph unicode="[" vert-adv-y="2504" d="M344 -297v1876h692v-172h-420v-1530h420v-174h-692z" />
<glyph unicode="\" vert-adv-y="2504" d="M0 1579h219l1010 -1876h-219z" />
<glyph unicode="]" vert-adv-y="2504" d="M193 -123h419v1530h-419v172h692v-1876h-692v174z" />
<glyph unicode="^" vert-adv-y="2504" d="M145 543l469 938l469 -938h-219l-250 518l-249 -518h-220z" />
<glyph unicode="_" vert-adv-y="2504" d="M0 0h1229v-197h-1229v197z" />
<glyph unicode="`" vert-adv-y="2504" d="M369 1604h284l209 -322h-174z" />
<glyph unicode="a" vert-adv-y="2504" d="M86 287q0 184 154 282q150 96 442 97h90v112q0 92 -41 127t-147 35q-129 0 -232 -51l-18 -117h-174v254q258 84 475 84q230 0 332 -68q100 -68 100 -229v-641h113v-172h-369l-39 104q-154 -129 -344 -129q-154 0 -248 86.5t-94 225.5zM387 303q0 -133 141 -133 q131 0 244 123v225h-45q-152 0 -246 -59.5t-94 -155.5z" />
<glyph unicode="b" vert-adv-y="2504" d="M37 1407v172h395v-653q147 184 340 184q182 0 288.5 -143.5t106.5 -386.5q0 -289 -139 -447t-391 -158q-92 0 -205 25h-297v1407h-98zM432 203l27 -6q86 -23 151 -23q260 0 260 373q0 336 -196 336q-127 0 -242 -170v-510z" />
<glyph unicode="c" vert-adv-y="2504" d="M61 541q0 262 184.5 415.5t502.5 153.5q215 0 419 -53v-367h-172l-24 205q-109 45 -234 45q-360 0 -360 -369q0 -207 112 -307q104 -92 295 -92q150 0 396 94v-215q-233 -76 -447 -76q-317 0 -493 150q-179 150 -179 416z" />
<glyph unicode="d" vert-adv-y="2504" d="M61 508q0 287 139.5 444.5t391.5 157.5q92 0 207 -25v322h-125v172h420v-1407h100v-172h-395v160q-152 -184 -342 -185q-180 0 -287 144q-109 145 -109 389zM358 541q0 -338 197 -338q127 0 244 172v508l-29 8q-80 20 -152 20q-260 1 -260 -370z" />
<glyph unicode="e" vert-adv-y="2504" d="M61 535q0 256 162 417q158 158 418 158q248 0 383 -149q133 -147 133 -422v-58h-786q14 -82 39 -135q88 -176 346 -176q172 0 411 84v-203q-240 -76 -469 -76q-301 0 -469 150t-168 410zM377 653h481q-4 121 -51 191q-63 90 -178 90q-126 0 -197 -98q-49 -68 -55 -183z " />
<glyph unicode="f" vert-adv-y="2504" d="M121 0v172h270v705h-270v184h270v92q0 451 496 451q166 0 342 -76v-256h-172l-27 121q-77 37 -147 37q-197 0 -197 -267v-102h416v-184h-416v-705h318v-172h-883z" />
<glyph unicode="g" vert-adv-y="2504" d="M92 -197q0 129 207 222q-102 72 -102 145q0 96 165 217q-96 53 -139 113q-68 90 -67 213q0 178 116 288q111 109 301 109q70 0 168 -25l469 25l-61 -211l-195 31q72 -113 72 -228q0 -168 -119 -274q-115 -106 -305 -106q-45 0 -88 8q-72 -53 -72 -94q0 -51 168 -52h150 q360 0 360 -245q0 -162 -149 -261q-152 -98 -408 -98q-207 0 -340 62q-131 61 -131 161zM401 -131q0 -117 205 -117q100 0 166 41t66 105q0 61 -56 84q-45 18 -145 18h-152q-84 -72 -84 -131zM440 715q0 -221 154 -221t154 221q0 223 -154 223t-154 -223z" />
<glyph unicode="h" vert-adv-y="2504" d="M37 0v172h104v1235h-104v172h395v-653q70 82 139 123q100 61 230 61q156 0 223 -84q70 -86 70 -281v-573h104v-172h-518v172h129v473q0 137 -29 189q-28 49 -104 49q-115 0 -250 -172v-539h129v-172h-518z" />
<glyph unicode="i" vert-adv-y="2504" d="M139 0v172h371v741h-371v172h668v-913h369v-172h-1037zM510 1282v297h297v-297h-297z" />
<glyph unicode="j" vert-adv-y="2504" d="M80 49h172l24 -231q111 -70 199 -70q127 0 160 100q25 77 24 240v825h-432v172h727v-981q0 -272 -120 -399q-119 -125 -377 -125q-150 0 -377 64v405zM659 1282v297h295v-297h-295z" />
<glyph unicode="k" vert-adv-y="2504" d="M37 0v172h98v1235h-98v172h393v-963h51l285 297h-125v172h516v-172h-147l-265 -276l349 -465h98v-172h-471v172l-240 322h-51v-322h100v-172h-493z" />
<glyph unicode="l" vert-adv-y="2504" d="M139 0v172h371v1235h-371v172h668v-1407h369v-172h-1037z" />
<glyph unicode="m" vert-adv-y="2504" d="M25 0v172h79v741h-79v172h303v-184q120 209 245 209q121 0 152 -209q108 209 240 209q96 0 131 -86q29 -74 28 -223v-629h86v-172h-309v637l-2 115q-2 141 -41 141q-53 0 -133 -215v-678h-221v637l-2 115q-2 141 -41 141q-53 0 -133 -215v-678h-303z" />
<glyph unicode="n" vert-adv-y="2504" d="M37 0v172h104v741h-104v172h389v-159q86 98 160 139q78 45 215 45q158 0 225 -86q68 -82 68 -279v-573h104v-172h-518v172h129v473q0 137 -29 189q-28 49 -104 49q-115 0 -250 -172v-539h129v-172h-518z" />
<glyph unicode="o" vert-adv-y="2504" d="M61 543q0 252 154 409.5t399.5 157.5t399 -157.5t153.5 -409.5t-153 -410q-158 -158 -406 -158q-215 0 -362 129q-185 163 -185 439zM371 545q0 -180 65 -289q68 -109 180 -109q242 0 242 396q0 184 -65 288q-63 106 -178 106.5t-179 -106.5q-65 -104 -65 -286z" />
<glyph unicode="p" vert-adv-y="2504" d="M37 -221h98v1134h-98v172h395v-159q147 184 340 184q182 0 288.5 -143.5t106.5 -386.5q0 -289 -139 -447t-391 -158q-92 0 -205 25v-221h123v-174h-518v174zM432 203l27 -6q86 -23 151 -23q260 0 260 373q0 336 -196 336q-127 0 -242 -170v-510z" />
<glyph unicode="q" vert-adv-y="2504" d="M61 508q0 287 139.5 444.5t391.5 157.5q92 0 207 -25h295v-1306h123v-174h-519v174h101v381q-152 -184 -342 -185q-180 0 -287 144q-109 145 -109 389zM358 541q0 -338 197 -338q127 0 244 172v508l-29 8q-80 20 -152 20q-260 1 -260 -370z" />
<glyph unicode="r" vert-adv-y="2504" d="M55 0v172h248v741h-248v172h543v-159q59 76 129 123q92 61 201 61q125 0 246 -53v-355h-173l-24 152q-55 31 -109 31q-120 0 -270 -185v-528h322v-172h-865z" />
<glyph unicode="s" vert-adv-y="2504" d="M168 778q0 182 143 264q117 68 328 68q197 0 391 -59v-312h-172l-24 158q-96 41 -209 41q-174 0 -174 -125q0 -59 41 -80q33 -18 135 -51l168 -51q166 -51 229 -119q66 -70 66 -184q0 -168 -119 -260q-117 -92 -332 -93q-201 0 -453 76v320h174l25 -150q147 -74 258 -74 q164 0 164 117q0 59 -37 90q-43 37 -135 62l-146 41q-321 92 -321 321z" />
<glyph unicode="t" vert-adv-y="2504" d="M74 889v172h270v270h297v-270h432v-172h-432v-475q0 -127 33 -181q31 -49 117 -49q108 0 294 86v-202q-212 -92 -374 -93q-195 0 -281 100.5t-86 330.5v483h-270z" />
<glyph unicode="u" vert-adv-y="2504" d="M31 913v172h389v-645q0 -137 29 -188q28 -49 104 -49q115 0 250 172v538h-129v172h413v-913h105v-172h-389v160q-82 -94 -160 -139.5t-215 -45.5q-160 0 -225 84q-68 86 -68 283v571h-104z" />
<glyph unicode="v" vert-adv-y="2504" d="M12 913v172h555v-172h-141l238 -653l264 653h-131v172h420v-172h-105l-369 -913h-294l-334 913h-103z" />
<glyph unicode="w" vert-adv-y="2504" d="M12 913v172h396v-172h-82l73 -510h4l117 474h248l115 -504h4l80 540h-78v172h328v-172h-74l-137 -913h-246l-137 602h-5l-151 -602h-248l-133 913h-74z" />
<glyph unicode="x" vert-adv-y="2504" d="M25 0v172h125l305 363l-285 378h-96v172h514v-172h-80l154 -202l172 202h-72v172h407v-172h-94l-305 -350l297 -391h137v-172h-588v172h111l-160 213l-176 -213h101v-172h-467z" />
<glyph unicode="y" vert-adv-y="2504" d="M12 913v172h584v-172h-147l229 -518l237 518h-147v172h449v-172h-103l-526 -1134h200v-174h-684v174h197l203 254l-391 880h-101z" />
<glyph unicode="z" vert-adv-y="2504" d="M147 0v197l558 716h-383v-196h-175v368h908v-172l-563 -729h415v199h174v-383h-934z" />
<glyph unicode="{" vert-adv-y="2504" d="M145 555v172h84q244 0 244 150q0 47 -14 106l-35 156q-18 78 -18 145q0 160 118.5 227.5t399.5 67.5h123v-172h-86q-258 0 -259 -117q0 -33 13 -88l22 -106q18 -84 19 -158q0 -123 -86 -205q-55 -51 -152 -94q109 -41 160 -92q78 -78 78 -201q0 -77 -19 -160l-22 -106 q-12 -55 -13 -90q0 -113 259 -113h86v-174h-123q-276 0 -400 70q-119 68 -118 227q0 66 18 143l35 156q14 59 14 109q0 147 -244 147h-84z" />
<glyph unicode="|" vert-adv-y="2504" d="M516 -297v1876h197v-1876h-197z" />
<glyph unicode="}" vert-adv-y="2504" d="M182 -123h88q258 0 258 115q0 27 -12 88l-22 108q-18 86 -19 156q0 123 86 205q55 51 152 94q-113 41 -160 92q-78 78 -78 203q0 74 19 158l22 106q12 61 12 90q0 115 -258 115h-88v172h125q280 0 400 -68q119 -68 118 -227q0 -63 -18 -145l-37 -156q-14 -59 -14 -109 q0 -147 245 -147h82v-172h-82q-246 0 -245 -149q0 -47 14 -107l37 -156q18 -83 18 -147q0 -156 -120 -223q-123 -70 -398 -70h-125v174z" />
<glyph unicode="~" vert-adv-y="2504" d="M104 432v27q0 176 76 272q76 100 207 100q108 0 240 -98l71 -51q96 -72 144 -72q108 0 110 203h172v-25q4 -76 -18 -155q-31 -106 -100 -164q-66 -53 -164 -53q-113 0 -240 96l-70 53q-96 72 -145 72q-104 0 -108 -205h-175z" />
<glyph unicode="&#xa0;" vert-adv-y="0" />
<glyph unicode="&#xa2;" vert-adv-y="2504" d="M127 750q0 272 143 415q86 88 211 125q53 16 156 31v197h172v-193q123 -8 297 -39v-336h-174l-25 150q-53 27 -98 35v-768q154 8 297 57v-215q-147 -29 -297 -37v-209h-172v211q-156 23 -229 57q-281 130 -281 519zM446 772q0 -182 72 -285q41 -57 119 -94v746 q-86 -31 -127 -95q-64 -94 -64 -272z" />
<glyph unicode="&#xa3;" vert-adv-y="2504" d="M119 0v248q98 0 147 71q63 92 64 304v79h-174v175h174v116q0 524 436 525q143 0 328 -60v-299h-172l-25 164q-72 23 -115 23q-158 0 -157 -193v-276h247v-175h-247v-38q0 -289 -238 -416h719v-248h-987z" />
<glyph unicode="&#xa5;" vert-adv-y="2504" d="M18 1309v172h504v-172h-125l305 -455l277 455h-123v172h354v-172h-24l-320 -496h207v-135h-295v-203h295v-135h-295v-168h221v-172h-741v172h223v168h-297v135h297v203h-297v135h203l-344 496h-25z" />
<glyph unicode="&#xa9;" vert-adv-y="2504" d="M61 739q0 352 152 565.5t401.5 213.5t401 -213t151.5 -564q0 -354 -151 -567q-150 -211 -410 -211q-217 0 -360 172q-185 221 -185 604zM199 739q0 -291 112 -471q115 -182 299 -182q170 0 281 143q141 184 141 512q0 295 -117 473q-117 180 -301 181q-188 0 -301 -181 q-114 -182 -114 -475zM287 733q0 203 98 322q98 123 264 123q98 0 203 -27l16 -4v-197h-86v92q-66 25 -125 25q-199 0 -198 -326q0 -328 223 -327q94 0 190 51v-121l-20 -8q-111 -45 -201 -45q-160 0 -262 123q-102 120 -102 319z" />
<glyph unicode="&#xad;" vert-adv-y="2504" d="M147 518v199h934v-199h-934z" />
<glyph unicode="&#xae;" vert-adv-y="2504" d="M61 739q0 352 152 565.5t401.5 213.5t401 -213t151.5 -564q0 -354 -151 -567q-150 -211 -410 -211q-217 0 -360 172q-185 221 -185 604zM199 739q0 -291 112 -471q115 -182 299 -182q170 0 281 143q141 184 141 512q0 295 -117 473q-117 180 -301 181q-188 0 -301 -181 q-114 -182 -114 -475zM365 317v99h24v649h-24v98h272q217 0 217 -205q0 -139 -127 -223l162 -319h24v-99h-143l-182 367h-51v-268h36v-99h-208zM537 758h8q154 0 153 174q0 133 -125 133h-36v-307z" />
<glyph unicode="&#xb4;" vert-adv-y="2504" d="M369 1282l206 322h285l-319 -322h-172z" />
<glyph unicode="&#x2000;" horiz-adv-x="837" vert-adv-y="0" />
<glyph unicode="&#x2001;" horiz-adv-x="1677" vert-adv-y="0" />
<glyph unicode="&#x2002;" horiz-adv-x="837" vert-adv-y="0" />
<glyph unicode="&#x2003;" horiz-adv-x="1677" vert-adv-y="0" />
<glyph unicode="&#x2004;" horiz-adv-x="557" vert-adv-y="0" />
<glyph unicode="&#x2005;" horiz-adv-x="417" vert-adv-y="0" />
<glyph unicode="&#x2006;" horiz-adv-x="278" vert-adv-y="0" />
<glyph unicode="&#x2007;" horiz-adv-x="278" vert-adv-y="0" />
<glyph unicode="&#x2008;" horiz-adv-x="208" vert-adv-y="0" />
<glyph unicode="&#x2009;" horiz-adv-x="333" vert-adv-y="0" />
<glyph unicode="&#x200a;" horiz-adv-x="92" vert-adv-y="0" />
<glyph unicode="&#x2010;" vert-adv-y="2504" d="M147 518v199h934v-199h-934z" />
<glyph unicode="&#x2011;" vert-adv-y="2504" d="M147 518v199h934v-199h-934z" />
<glyph unicode="&#x2012;" vert-adv-y="2504" d="M147 518v199h934v-199h-934z" />
<glyph unicode="&#x2013;" vert-adv-y="2504" d="M121 530v150h987v-150h-987z" />
<glyph unicode="&#x2014;" vert-adv-y="2504" d="M0 530v150h1229v-150h-1229z" />
<glyph unicode="&#x2018;" vert-adv-y="2504" d="M442 938v266q0 203 74 289t252 86h18v-123h-14q-78 0 -98 -51q-20 -43 -23 -123h135v-344h-344z" />
<glyph unicode="&#x2019;" vert-adv-y="2504" d="M442 938v123h15q78 0 98 51q16 35 23 123h-136v344h344v-266q0 -238 -96 -314q-70 -61 -227 -61h-21z" />
<glyph unicode="&#x201c;" vert-adv-y="2504" d="M195 987v268q0 324 274 324h23v-111h-21q-104 0 -104 -145l2 -41h123v-295h-297zM737 987v268q0 324 277 324h20v-111h-18q-106 0 -107 -145l2 -41h123v-295h-297z" />
<glyph unicode="&#x201d;" vert-adv-y="2504" d="M195 987v111h18q106 0 106 145l-2 39h-122v297h297v-268q0 -324 -277 -324h-20zM737 987v111h21q104 0 104 145l-2 39h-123v297h297v-268q0 -324 -274 -324h-23z" />
<glyph unicode="&#x2022;" vert-adv-y="2504" d="M338 846q0 115 82 194q82 82 196 82q113 0 195 -82t82 -196q0 -117 -82 -197t-201 -80q-98 0 -176 66q-96 84 -96 213z" />
<glyph unicode="&#x2026;" vert-adv-y="2504" d="M82 0v248h246v-248h-246zM492 0v248h245v-248h-245zM899 0v248h248v-248h-248z" />
<glyph unicode="&#x202f;" horiz-adv-x="333" vert-adv-y="0" />
<glyph unicode="&#x205f;" horiz-adv-x="417" vert-adv-y="0" />
<glyph unicode="&#x20ac;" vert-adv-y="2504" d="M25 494l61 147h72q-4 47 -4 100q0 43 6 123h-135l61 148h102q47 143 93 213q188 293 585 293q139 0 314 -41v-203q-203 72 -310 72q-172 0 -282 -117q-76 -80 -111 -217h604l-61 -148h-563q-8 -127 -8 -168v-55h479l-62 -147h-393q37 -141 127 -226q119 -109 279 -108 q120 0 301 86v-217q-190 -66 -353 -66q-496 0 -645 531h-157z" />
<glyph unicode="&#x2122;" vert-adv-y="2504" d="M49 1282v199h457v-199h-86v100h-76v-542h76v-101h-285v101h74v542h-74v-100h-86zM543 739v101h53v542h-53v99h241l84 -418l82 418h244v-99h-57v-542h57v-101h-186v617l-107 -565h-92l-115 559v-611h-151z" />
<glyph unicode="&#xe000;" horiz-adv-x="1085" vert-adv-y="2169" d="M0 1085h1085v-1085h-1085v1085z" />
<glyph unicode="&#xf001;" vert-adv-y="2504" d="M37 0v172h104v717h-104v172h104v131q0 190 110.5 301t301.5 111q104 0 195 -35v-287h-173l-24 137q-16 10 -31 11q-94 0 -94 -201v-168h668v-889h104v-172h-493v172h106v717h-385v-717h104v-172h-493zM848 1282v297h246v-297h-246z" />
<glyph unicode="&#xfb01;" vert-adv-y="2504" d="M37 0v172h104v717h-104v172h104v131q0 190 110.5 301t301.5 111q104 0 195 -35v-287h-173l-24 137q-16 10 -31 11q-94 0 -94 -201v-168h668v-889h104v-172h-493v172h106v717h-385v-717h104v-172h-493zM848 1282v297h246v-297h-246z" />
<glyph unicode="&#xf002;" vert-adv-y="2504" d="M37 0v172h104v717h-104v172h104v119q0 424 402 424l276 -25h275v-1407h104v-172h-493v172h106v1176q-152 80 -231 79q-154 0 -154 -213v-153h270v-172h-270v-717h104v-172h-493z" />
<glyph unicode="&#xfb02;" vert-adv-y="2504" d="M37 0v172h104v717h-104v172h104v119q0 424 402 424l276 -25h275v-1407h104v-172h-493v172h106v1176q-152 80 -231 79q-154 0 -154 -213v-153h270v-172h-270v-717h104v-172h-493z" />
<glyph unicode="&#xfb03;" horiz-adv-x="3686" vert-adv-y="2504" d="M2597 0v172h371v741h-371v172h668v-913h369v-172h-1037zM2968 1282v297h297v-297h-297zM1350 0v172h270v705h-270v184h270v92q0 451 496 451q166 0 342 -76v-256h-172l-27 121q-77 37 -147 37q-197 0 -197 -267v-102h416v-184h-416v-705h318v-172h-883zM121 0v172h270 v705h-270v184h270v92q0 451 496 451q166 0 342 -76v-256h-172l-27 121q-77 37 -147 37q-197 0 -197 -267v-102h416v-184h-416v-705h318v-172h-883z" />
<glyph unicode="&#xfb04;" horiz-adv-x="3686" vert-adv-y="2504" d="M2597 0v172h371v1235h-371v172h668v-1407h369v-172h-1037zM1350 0v172h270v705h-270v184h270v92q0 451 496 451q166 0 342 -76v-256h-172l-27 121q-77 37 -147 37q-197 0 -197 -267v-102h416v-184h-416v-705h318v-172h-883zM121 0v172h270v705h-270v184h270v92 q0 451 496 451q166 0 342 -76v-256h-172l-27 121q-77 37 -147 37q-197 0 -197 -267v-102h416v-184h-416v-705h318v-172h-883z" />
</font>
</defs>
</svg>
