<?xml version="1.0" standalone="no"?>
<!DOCTYPE svg PUBLIC "-//W3C//DTD SVG 1.1//EN" "http://www.w3.org/Graphics/SVG/1.1/DTD/svg11.dtd" >
<svg xmlns="http://www.w3.org/2000/svg">
<metadata>
This is a custom SVG webfont generated by Font Squirrel.
Copyright   : Copyright c 2001 by Bigelow  Holmes Inc Instructions copyright c 2001 by URW
Designer    : Kris Holmes and Charles Bigelow
Foundry     : Bigelow  Holmes Inc
Foundry URL : httpwwwurwppde
</metadata>
<defs>
<font id="webfontfGuyBobl" horiz-adv-x="1228" vert-adv-y="2048" >
<font-face units-per-em="2048" ascent="1638" descent="-410" />
<missing-glyph horiz-adv-x="500" />
<glyph unicode=" " vert-adv-y="0" />
<glyph unicode="!" vert-adv-y="2463" d="M492 0l43 221h247l-45 -221h-245zM637 420l96 665l78 396h199l-80 -396l-170 -665h-123z" />
<glyph unicode="&#x22;" vert-adv-y="2463" d="M502 1036l57 543h248l-158 -543h-147zM993 1036l60 543h247l-157 -543h-150z" />
<glyph unicode="#" vert-adv-y="2463" d="M129 444l57 123h234l155 346h-282l55 123h283l200 445h136l-199 -445h258l201 445h135l-201 -445h236l-56 -123h-235l-156 -346h285l-55 -123h-285l-199 -444h-137l201 444h-260l-199 -444h-135l199 444h-236zM555 567h260l156 346h-260z" />
<glyph unicode="$" vert-adv-y="2463" d="M162 86l59 299h123l-14 -199q111 -53 221 -63l115 575l-80 54q-188 125 -189 301q0 195 166 323q111 86 285 105l24 123h123l-24 -123q158 0 313 -72l-55 -285h-123l12 199q-82 35 -149 35h-23l-106 -535l78 -47q205 -125 204 -291q0 -213 -180 -366q-119 -100 -293 -119 l-24 -123h-123l24 123q-198 14 -364 86zM580 1083q0 -94 102 -161l47 -31l94 467q-102 -23 -164 -84q-79 -80 -79 -191zM676 123q92 12 164 90q98 106 98 231q0 88 -102 154l-60 37z" />
<glyph unicode="%" vert-adv-y="2463" d="M53 -37l1284 1555h131l-1286 -1555h-129zM231 993q0 199 105 342q104 145 248 146q199 0 198 -256q0 -199 -102 -340q-104 -145 -252 -146q-197 0 -197 254zM367 1001q0 -137 90 -137q68 0 121 84q72 113 71 271q0 139 -92 139q-74 0 -133 -111q-57 -107 -57 -246z M741 254q0 197 105 342q104 143 248 143q199 0 198 -254q0 -201 -102 -342q-104 -143 -252 -143q-197 0 -197 254zM877 262q0 -139 90 -139q66 0 120 86q72 115 72 268q0 139 -92 139q-74 0 -133 -108q-57 -107 -57 -246z" />
<glyph unicode="&#x26;" vert-adv-y="2463" d="M133 303q0 219 143 387q84 98 250 199q-23 92 -22 178q0 201 106.5 326t284.5 125q240 0 240 -215q0 -166 -142 -302q-84 -78 -250 -165q109 -336 205 -504q125 131 162 358h-98l22 123h326l-27 -123h-71q-43 -166 -91 -250q-51 -90 -161 -200l88 -117h123l-25 -123h-264 l-72 111q-209 -147 -389 -148q-174 0 -260 96q-78 88 -78 244zM317 348q0 -238 224 -237q123 0 262 98q-135 229 -238 575q-109 -74 -166 -157q-82 -123 -82 -279zM684 1096q0 -88 25 -158q109 63 165 133q80 98 80 219q0 104 -88 105q-78 0 -131 -84q-51 -82 -51 -215z" />
<glyph unicode="'" vert-adv-y="2463" d="M733 963l49 616h297l-198 -616h-148z" />
<glyph unicode="(" vert-adv-y="2463" d="M428 416q0 482 344 860q131 145 295 227q104 53 233 76l-22 -123q-143 -43 -250 -131q-178 -147 -289 -412q-104 -250 -104 -532q0 -285 119 -428q49 -59 104 -88q31 -15 92 -37l-24 -125q-209 39 -334 193q-164 198 -164 520z" />
<glyph unicode=")" vert-adv-y="2463" d="M188 -297l25 125q147 45 248 129q176 145 289 414q104 248 104 532.5t-119 427.5q-49 59 -104 88q-31 15 -92 37l24 123q211 -43 334 -193q164 -199 164 -518q0 -483 -344 -862q-131 -147 -293 -227q-105 -51 -236 -76z" />
<glyph unicode="*" vert-adv-y="2463" d="M377 1073l94 191l293 -152q-45 -35 -47 -90zM432 721l289 270q14 -39 65 -53l-204 -324zM788 1128l25 353h199l-123 -353q-37 14 -47.5 14t-53.5 -14zM809 936q49 6 90 49l193 -258l-187 -113zM909 1110l355 154l18 -193l-362 -47q6 18 6 31q-1 37 -17 55z" />
<glyph unicode="+" vert-adv-y="2463" d="M207 543l29 147h442l88 443h147l-88 -443h443l-31 -147h-440l-88 -443h-150l88 443h-440z" />
<glyph unicode="," vert-adv-y="2463" d="M401 -322l21 101q78 16 110 65q29 43 58 156h-123l57 297h297l-37 -180q-84 -416 -383 -439z" />
<glyph unicode="-" vert-adv-y="2463" d="M256 543l31 147h932l-29 -147h-934z" />
<glyph unicode="." vert-adv-y="2463" d="M467 0l57 297h297l-59 -297h-295z" />
<glyph unicode="/" vert-adv-y="2463" d="M39 -297l1243 1876h164l-1243 -1876h-164z" />
<glyph unicode="0" vert-adv-y="2463" d="M217 469q0 424 207 735q206 313 491 314q395 0 396 -508q0 -418 -209 -738q-199 -309 -506 -309q-379 0 -379 506zM420 426q0 -340 211 -340q145 0 260 170q94 135 158 395q57 227 57 402q0 342 -215 342q-170 0 -301 -248q-72 -137 -119 -340q-51 -213 -51 -381z" />
<glyph unicode="1" vert-adv-y="2463" d="M113 0l24 123h445l237 1190l-467 -111l25 123l680 193l-279 -1395h445l-25 -123h-1085z" />
<glyph unicode="2" vert-adv-y="2463" d="M133 0l35 172q147 186 321 322l123 92l144 112q330 256 329 492q0 205 -227 205q-121 0 -278 -86l-72 -236h-123l70 350q262 94 467 95q180 0 276 -82q98 -80 98 -229.5t-82 -274.5q-84 -131 -272 -264l-100 -70q-358 -258 -451 -426h752l-35 -172h-975z" />
<glyph unicode="3" vert-adv-y="2463" d="M186 10l76 375h123l-25 -248q76 -51 195 -51q172 0 291 115q115 115 115 276q0 250 -361 250h-133l22 125h115q221 0 340 94q123 94 123 262q0 86 -63 135q-68 51 -170 52q-117 0 -207 -39l-56 -209h-122l63 317q207 53 369 54q389 0 389 -285q0 -172 -127 -297 q-92 -88 -242 -137q121 -37 180 -94q88 -84 88 -224q0 -215 -172 -364q-172 -154 -430 -154q-154 0 -299 31z" />
<glyph unicode="4" vert-adv-y="2463" d="M168 420l29 147l813 914h196l-182 -914h221l-28 -147h-224l-57 -297h197l-25 -123h-641l25 123h270l59 297h-653zM352 567h500l143 725z" />
<glyph unicode="5" vert-adv-y="2463" d="M250 0l63 322h123l-14 -199q82 -37 153 -37q154 0 271 129q115 127 115 297q0 135 -103 209q-102 76 -272 76q-70 0 -150 -15l139 699h766l-34 -172h-621l-78 -394q66 4 74 5q227 0 360 -103q131 -100 132 -280q0 -236 -183 -404q-186 -170 -438 -170q-113 0 -303 37z " />
<glyph unicode="6" vert-adv-y="2463" d="M236 442q0 201 63 410q61 207 166 352q227 313 573 314q129 0 316 -72l-64 -318h-123l19 211q-76 55 -168 56q-211 0 -367 -217q-104 -147 -162 -406q184 197 412 197q158 0 250 -97q92 -95 92 -264q0 -266 -178 -452q-178 -193 -426 -193q-193 0 -297 125 q-106 125 -106 354zM438 389q0 -133 70 -219q70 -84 178 -84q133 0 229 121q125 156 125 399q0 233 -200 234q-160 0 -281 -135q-121 -138 -121 -316z" />
<glyph unicode="7" vert-adv-y="2463" d="M264 0q150 434 596 948l164 185l139 161h-757l36 187h914l-37 -187l-113 -118q-586 -633 -694 -1176h-248z" />
<glyph unicode="8" vert-adv-y="2463" d="M195 291q0 273 325 473l64 39l-45 41q-121 109 -121 235q0 176 155.5 307.5t372.5 131.5q164 0 260 -74q98 -72 99 -199q0 -111 -62 -198q-63 -92 -221 -211l-57 -43l59 -45q111 -90 145 -146q37 -57 37 -145q0 -205 -174 -351q-170 -143 -420 -143q-197 0 -307 86 t-110 242zM393 313q0 -100 74 -163q72 -63 186 -64q139 0 238 92q96 90 96 217q0 102 -143 213l-174 135q-147 -133 -211 -221q-66 -96 -66 -209zM612 1145q0 -102 176 -230l74 -53q254 199 254 371q0 71 -61 117q-59 45 -158 45q-115 0 -201 -76q-84 -74 -84 -174z" />
<glyph unicode="9" vert-adv-y="2463" d="M172 35l64 315h122l-18 -209q78 -55 168 -55q213 0 366 215q106 147 162 406q-184 -195 -409 -195q-160 0 -252 94q-92 95 -92 264q0 264 178 455q180 193 426 193q193 0 299 -125q104 -126 104 -357q0 -201 -63 -405q-61 -211 -166 -355q-225 -313 -574 -313 q-129 0 -315 72zM485 872q0 -231 201 -231q162 0 281 133q121 137 120 316q0 135 -67 219q-68 86 -180 86q-133 0 -230 -121q-125 -156 -125 -402z" />
<glyph unicode=":" vert-adv-y="2463" d="M467 0l57 297h297l-59 -297h-295zM625 791l57 294h297l-59 -294h-295z" />
<glyph unicode=";" vert-adv-y="2463" d="M401 -322l21 101q78 16 110 65q29 43 58 156h-123l57 297h297l-37 -180q-84 -416 -383 -439zM625 791l57 294h297l-59 -294h-295z" />
<glyph unicode="&#x3c;" vert-adv-y="2463" d="M221 616l1155 619l-33 -174l-831 -445l653 -444l-35 -172z" />
<glyph unicode="=" vert-adv-y="2463" d="M168 346l31 148h1030l-31 -148h-1030zM248 739l28 150h1033l-31 -150h-1030z" />
<glyph unicode="&#x3e;" vert-adv-y="2463" d="M98 0l35 172l832 444l-654 445l35 174l907 -619z" />
<glyph unicode="?" vert-adv-y="2463" d="M416 0l45 221h246l-45 -221h-246zM418 1073l74 377q233 68 423 68q406 0 406 -277q0 -203 -209 -338l-63 -41q-33 -23 -70 -43q-104 -63 -156 -117q-57 -61 -90 -221l-12 -61h-197l11 57q49 243 301 400l75 47q195 121 195 293q0 178 -221 178q-123 0 -269 -64l-75 -258 h-123z" />
<glyph unicode="@" vert-adv-y="2463" d="M203 481q0 406 231 719q233 317 543 318q145 0 233 -78q88 -76 88 -207q0 -90 -20 -191l-127 -628h119l-25 -123h-241l73 366h-24q-72 -162 -156 -251q-109 -121 -219 -121q-174 0 -174 245q0 250 158 447q158 201 352 201q57 0 153 -27v25q0 219 -223 219 q-244 0 -426 -262.5t-182 -604.5q0 -207 102 -325q104 -117 277 -117q117 0 262 64l-29 -138q-160 -49 -262 -49q-209 0 -346 139t-137 379zM653 559q0 -133 72 -133q70 0 170 125q88 111 235 377l23 110q-72 47 -141 47q-141 0 -248 -161q-111 -160 -111 -365z" />
<glyph unicode="A" vert-adv-y="2463" d="M25 0l24 123h76l690 1358h191l147 -1358h76l-27 -123h-436l25 123h155l-35 321h-495l-162 -321h141l-24 -123h-346zM479 567h420l-74 676h-2z" />
<glyph unicode="B" vert-adv-y="2463" d="M74 0l24 123h172l248 1235h-174l27 123h616q317 0 318 -252q0 -168 -131 -309q-86 -94 -230 -150q145 -41 201 -121q51 -70 51 -184q0 -215 -141 -338q-143 -127 -387 -127h-594zM469 123h164q186 0 276 98q78 88 78 236q0 119 -82 182t-223 63h-96zM608 827h99 q170 0 276 111q109 113 109 274q0 145 -177 146h-198z" />
<glyph unicode="C" vert-adv-y="2463" d="M248 502q0 424 225 729q213 287 559 287q160 0 367 -66l-70 -342h-123l19 231q-102 53 -211 54q-231 0 -383 -256q-172 -289 -172 -641q0 -190 86 -295t237 -105q178 0 394 135l-33 -159q-229 -111 -412 -111q-483 0 -483 539z" />
<glyph unicode="D" vert-adv-y="2463" d="M49 0l25 123h147l248 1235h-150l25 123h510q252 0 371 -119q119 -117 118 -373q0 -369 -204 -667q-223 -322 -561 -322h-529zM420 123h119q264 0 422 246q168 266 167 606q0 207 -84 293q-86 90 -274 90h-104z" />
<glyph unicode="E" vert-adv-y="2463" d="M74 0l24 123h187l245 1235h-186l27 123h981l-72 -359h-123l47 236h-477l-109 -545h293l25 125h123l-74 -371h-125l27 123h-291l-113 -555h527l49 248h123l-76 -383h-1032z" />
<glyph unicode="F" vert-adv-y="2463" d="M111 0l24 123h223l246 1235h-221l25 123h1024l-74 -371h-123l49 248h-481l-117 -582h297l25 125h122l-73 -371h-123l24 123h-296l-107 -530h272l-24 -123h-692z" />
<glyph unicode="G" vert-adv-y="2463" d="M199 502q0 424 225 729q211 287 569 287q172 0 357 -62l-70 -346h-123l19 231q-100 53 -203 54q-240 0 -391 -258q-172 -293 -172 -641q0 -397 331 -398q80 0 170 33l82 406h-174l27 122h368l-116 -585q-205 -111 -410 -111q-248 0 -371 139q-118 136 -118 400z" />
<glyph unicode="H" vert-adv-y="2463" d="M61 0l25 123h113l245 1235h-110l24 123h408l-25 -123h-100l-104 -531h487l106 531h-98l25 123h407l-24 -123h-113l-246 -1235h111l-25 -123h-407l24 123h101l114 579h-487l-117 -579h99l-25 -123h-408z" />
<glyph unicode="I" vert-adv-y="2463" d="M160 0l24 123h357l245 1235h-356l27 123h907l-25 -123h-356l-246 -1235h357l-27 -123h-907z" />
<glyph unicode="J" vert-adv-y="2463" d="M117 31l84 413h123l-25 -309q104 -49 184 -49q221 0 267 236l206 1036h-393l25 123h852l-27 -123h-258l-199 -996q-43 -215 -153 -307q-111 -92 -324 -92q-159 0 -362 68z" />
<glyph unicode="K" vert-adv-y="2463" d="M74 0l24 123h129l248 1235h-131l27 123h432l-27 -123h-104l-119 -602h6l551 602h-111l25 123h354l-24 -123h-92l-506 -547l393 -688h74l-27 -123h-424l25 123h110l-352 616h-6l-123 -616h123l-25 -123h-450z" />
<glyph unicode="L" vert-adv-y="2463" d="M86 0l25 123h245l248 1235h-248l27 123h678l-25 -123h-233l-246 -1223h498l69 346h123l-96 -481h-1065z" />
<glyph unicode="M" vert-adv-y="2463" d="M25 0l24 123h86l248 1235h-86l25 123h284l103 -1018h2l520 1018h270l-24 -123h-86l-248 -1235h86l-25 -123h-319l22 123h74l201 1005h-2l-478 -933h-135l-98 970l-209 -1042h86l-24 -123h-297z" />
<glyph unicode="N" vert-adv-y="2463" d="M74 0l24 123h113l246 1235h-113l27 123h233l395 -1075h2l191 952h-111l25 123h344l-25 -123h-110l-271 -1358h-124l-394 1075h-2l-190 -952h110l-24 -123h-346z" />
<glyph unicode="O" vert-adv-y="2463" d="M188 510q0 399 222 702q221 305 516 306q195 0 305 -146q111 -143 110 -401q0 -401 -221 -704.5t-514 -303.5q-175 0 -282 117q-136 147 -136 430zM395 457q0 -371 240 -371q174 0 303 203q92 147 147 348q51 186 52 389q0 369 -240 369q-203 0 -352.5 -284.5 t-149.5 -653.5z" />
<glyph unicode="P" vert-adv-y="2463" d="M86 0l25 123h196l248 1235h-199l27 123h659q317 0 318 -264q0 -205 -148 -392q-178 -227 -493 -227h-119l-94 -475h282l-22 -123h-680zM625 723h112q176 0 289 131q117 135 117 326q0 178 -189 178h-202z" />
<glyph unicode="Q" vert-adv-y="2463" d="M188 504q0 406 222 708q221 305 516 306q195 0 305 -146q111 -143 110 -397q0 -381 -206 -690q-139 -203 -342 -287q139 -100 401 -162q-72 -72 -201 -158q-188 78 -383 285q-213 35 -305 133q-117 123 -117 408zM395 457q0 -371 240 -371q174 0 303 203q92 150 147 348 q51 186 52 389q0 369 -240 369q-203 0 -352.5 -284.5t-149.5 -653.5z" />
<glyph unicode="R" vert-adv-y="2463" d="M86 0l25 123h129l247 1235h-131l27 123h586q313 0 313 -285q0 -178 -123 -319q-78 -88 -215 -168l197 -586h88l-25 -123h-254l-209 647h-198l-105 -524h129l-24 -123h-457zM567 770h99q182 0 292.5 114.5t110.5 291.5q0 102 -45 141q-47 41 -162 41h-178z" />
<glyph unicode="S" vert-adv-y="2463" d="M164 61l72 359h122l-22 -236q166 -98 291 -98q143 0 245 102q104 102 105 238q0 109 -158 201l-170 98q-139 80 -198 149q-53 66 -54 164q0 211 150 344q147 135 391 136q178 0 356 -74l-71 -359h-123l22 236q-111 74 -225 74q-127 0 -213 -88q-86 -90 -86 -213 q0 -70 47 -111q35 -33 139 -94l150 -90q152 -92 201 -150q47 -55 47 -157q0 -219 -172 -373q-174 -156 -422 -156q-199 0 -424 98z" />
<glyph unicode="T" vert-adv-y="2463" d="M256 0l27 123h258l247 1235h-331l-56 -273h-122l79 396h1106l-80 -396h-122l55 273h-332l-248 -1235h260l-24 -123h-717z" />
<glyph unicode="U" vert-adv-y="2463" d="M266 301q0 106 29 250l162 807h-123l24 123h457l-24 -123h-138l-166 -836q-20 -104 -20 -190q0 -111 57 -176q59 -70 152 -70q260 0 350 446l166 826h-135l24 123h383l-24 -123h-125l-172 -862q-53 -258 -189 -394q-137 -139 -338 -139q-158 0 -254 90t-96 248z" />
<glyph unicode="V" vert-adv-y="2463" d="M297 1358l25 123h438l-27 -123h-155l120 -1120h2l572 1120h-144l25 123h346l-24 -123h-74l-692 -1358h-189l-149 1358h-74z" />
<glyph unicode="W" vert-adv-y="2463" d="M242 0l102 1358h-49l24 123h310l-25 -123h-98l-80 -1077l381 976h156l-9 -972h2l349 1073h-99l25 123h272l-24 -123h-49l-443 -1358h-188l12 975l-381 -975h-188z" />
<glyph unicode="X" vert-adv-y="2463" d="M49 0l25 123h110l471 606l-235 629h-101l25 123h422l-25 -123h-102l190 -502l388 502h-127l24 123h363l-27 -123h-104l-476 -613l236 -622h98l-24 -123h-445l27 123h123l-187 495l-385 -495h154l-25 -123h-393z" />
<glyph unicode="Y" vert-adv-y="2463" d="M295 0l24 123h222l106 536l-262 699h-86l25 123h462l-24 -123h-150l207 -545h2l422 545h-147l24 123h377l-24 -123h-87l-540 -696l-109 -539h224l-25 -123h-641z" />
<glyph unicode="Z" vert-adv-y="2463" d="M147 0l27 135l944 1223h-557l-53 -273h-123l78 396h901l-25 -123l-944 -1223h588l59 297h125l-86 -432h-934z" />
<glyph unicode="[" vert-adv-y="2463" d="M336 -297l375 1876h542l-24 -123h-371l-326 -1628h371l-24 -125h-543z" />
<glyph unicode="\" vert-adv-y="2463" d="M416 1579h162l493 -1876h-164z" />
<glyph unicode="]" vert-adv-y="2463" d="M231 -297l25 125h371l325 1628h-370l24 123h545l-377 -1876h-543z" />
<glyph unicode="^" vert-adv-y="2463" d="M254 543l657 938l281 -938h-166l-180 606l-426 -606h-166z" />
<glyph unicode="_" vert-adv-y="2463" d="M-31 -147l31 147h1229l-31 -147h-1229z" />
<glyph unicode="`" vert-adv-y="2463" d="M713 1604h227l154 -322h-123z" />
<glyph unicode="a" vert-adv-y="2463" d="M205 221q0 432 680 432h86l33 168q6 25 6 49q0 117 -176 117q-104 0 -269 -57l-51 -127h-123l43 215q250 92 490 92q289 0 288 -186q0 -43 -12 -105l-137 -696h135l-24 -123h-314l4 119q-201 -143 -381 -144q-278 0 -278 246zM418 252q0 -129 155 -129q143 0 322 156 l51 251h-53q-256 0 -363 -65q-112 -68 -112 -213z" />
<glyph unicode="b" vert-adv-y="2463" d="M184 0l293 1456h-125l27 123h319l-143 -715q100 113 180 166q121 80 236 80q131 0 206.5 -94t75.5 -266q0 -322 -186 -547q-187 -227 -461 -228q-86 0 -223 25h-199zM412 145q145 -23 206 -22q248 0 351 262q76 199 75 363q0 203 -157 202q-166 0 -361 -233z" />
<glyph unicode="c" vert-adv-y="2463" d="M252 414q0 303 186 497q188 199 482 199q176 0 317 -53l-70 -346h-125l17 231q-106 45 -176 45q-170 0 -295 -168q-123 -166 -123 -393q0 -303 293 -303q135 0 319 78l-30 -156q-160 -70 -359 -70q-436 1 -436 439z" />
<glyph unicode="d" vert-adv-y="2463" d="M195 336q0 322 188 547q186 227 463 227q84 0 219 -25l74 371h-246l25 123h444l-293 -1456h125l-25 -123h-321l45 221q-102 -115 -178 -166q-117 -80 -238 -80q-131 0 -206.5 94.5t-75.5 266.5zM403 340q0 -205 158 -205q166 0 361 236l114 567q-152 25 -207 25 q-250 0 -350 -261q-37 -100 -55 -190q-21 -94 -21 -172z" />
<glyph unicode="e" vert-adv-y="2463" d="M231 426q0 283 195 483.5t471 200.5q356 0 356 -332q0 -100 -22 -211l-12 -61h-773q-4 -35 -4 -74q0 -309 322 -309q156 0 366 88l-30 -150q-190 -86 -391 -86q-224 0 -351 117q-127 121 -127 334zM473 629h559l10 47q14 72 15 127q0 184 -201 184q-156 0 -262 -123 q-78 -88 -121 -235z" />
<glyph unicode="f" vert-adv-y="2463" d="M147 0l25 123h272l160 803h-270l26 135h273l22 119q43 223 156 323q109 100 313 101q174 0 349 -80l-52 -246h-123v156q-88 47 -174 47q-117 0 -176 -62q-61 -66 -92 -219l-27 -139h445l-29 -135h-442l-162 -803h371l-25 -123h-840z" />
<glyph unicode="g" vert-adv-y="2463" d="M45 -231q0 111 164 206l63 37q-70 45 -69 107q0 102 157 225l43 35q-145 98 -145 258q0 197 156 336q152 137 379 137q90 0 178 -33l415 33l-94 -176l-198 31q59 -102 59 -191q0 -180 -158 -319q-156 -137 -366 -138q-41 0 -117 15l-47 -35q-80 -59 -80 -102 q0 -47 129 -48h313q268 0 269 -190q0 -168 -176 -272q-175 -104 -467 -105q-408 1 -408 189zM252 -182q0 -115 260 -115q162 0 270 57q106 57 107 144q0 96 -158 96h-323l-46 -31q-110 -71 -110 -151zM455 639q0 -199 200 -199q133 0 222 101q92 102 92 239q0 86 -45 140 q-55 68 -156 67q-121 0 -217 -104q-96 -107 -96 -244z" />
<glyph unicode="h" vert-adv-y="2463" d="M70 0l24 123h123l266 1333h-123l25 123h322l-142 -702q92 109 168 157q109 76 232 76q242 0 241 -233q0 -65 -18 -154l-121 -600h125l-25 -123h-419l24 123h98l115 577q16 86 16 127q0 129 -127 129q-151 0 -344 -251l-116 -582h110l-22 -123h-432z" />
<glyph unicode="i" vert-adv-y="2463" d="M147 0l25 123h391l166 840h-389l25 122h587l-192 -962h370l-24 -123h-959zM795 1331l49 248h223l-49 -248h-223z" />
<glyph unicode="j" vert-adv-y="2463" d="M90 -344l64 319h122l-12 -219q59 -53 137 -53q129 0 207 96q76 94 123 328l166 836h-442l24 122h641l-205 -1019q-47 -233 -184 -359q-135 -127 -340 -127q-141 0 -301 76zM958 1331l52 248h221l-49 -248h-224z" />
<glyph unicode="k" vert-adv-y="2463" d="M74 0l24 123h123l268 1333h-124l24 123h322l-199 -987h27l432 371h-117l25 122h432l-25 -122h-141l-436 -363l393 -477h98l-24 -123h-355l25 123l-322 401h-24l-80 -401h98l-24 -123h-420z" />
<glyph unicode="l" vert-adv-y="2463" d="M147 0l25 123h391l266 1333h-391l27 123h586l-291 -1456h370l-24 -123h-959z" />
<glyph unicode="m" vert-adv-y="2463" d="M27 0l24 123h74l168 840h-76l27 122h252l-41 -206q90 127 145 176q61 55 137 55q141 0 142 -170l-1 -5q-1 -5 -1 -11q0 -20 -3 -35v-10q139 231 287 231q145 0 146 -182q0 -49 -9 -90l-143 -715h74l-25 -123h-254l152 752q20 100 20 139q0 66 -45 65.5t-108 -67.5 q-41 -41 -76 -96q-41 -66 -49 -103l-115 -567h74l-25 -123h-252l158 799q12 55 12 88q0 70 -45 69q-84 0 -233 -266l-115 -567h74l-25 -123h-325z" />
<glyph unicode="n" vert-adv-y="2463" d="M70 0l24 123h123l168 840h-125l27 122h319l-41 -208q92 109 168 157q109 76 232 76q242 0 241 -231q0 -68 -18 -156l-121 -600h125l-25 -123h-419l24 123h98l115 577q16 86 16 127q0 129 -127 129q-151 0 -344 -251l-116 -582h110l-22 -123h-432z" />
<glyph unicode="o" vert-adv-y="2463" d="M207 391q0 303 180 510q181 209 449 209q410 0 409 -418q0 -307 -184 -512t-461 -205q-169 0 -270 86q-123 107 -123 330zM412 362q0 -264 221 -264q156 0 264 146q141 187 141 479q0 264 -223 264q-174 0 -289 -182q-114 -187 -114 -443z" />
<glyph unicode="p" vert-adv-y="2463" d="M-16 -395l24 123h123l248 1235h-125l25 122h321l-45 -221q215 246 416 246q131 0 206.5 -94t75.5 -266q0 -322 -186 -547q-187 -227 -461 -228q-86 0 -223 25l-55 -272h247l-24 -123h-567zM412 145q139 -23 206 -22q248 0 351 262q76 199 75 363q0 203 -157 202 q-166 0 -361 -233z" />
<glyph unicode="q" vert-adv-y="2463" d="M195 336q0 322 188 547q186 227 463 227q84 0 219 -25h199l-273 -1357h123l-24 -123h-568l25 125h248l98 491q-102 -115 -178 -166q-117 -80 -238 -80q-131 0 -206.5 94.5t-75.5 266.5zM403 340q0 -205 158 -205q166 0 361 236l114 567q-152 25 -207 25q-250 0 -350 -261 q-37 -100 -55 -190q-21 -94 -21 -172z" />
<glyph unicode="r" vert-adv-y="2463" d="M74 0l24 123h260l168 840h-260l25 122h457l-43 -211q92 104 174 160q109 76 221 76q117 0 215 -68l-66 -327h-125l19 186q-45 37 -113 37q-180 0 -358 -236l-117 -579h369l-25 -123h-825z" />
<glyph unicode="s" vert-adv-y="2463" d="M184 61l60 297h125l-13 -184q178 -76 320 -76q115 0 184 41q90 53 90 154q0 66 -59 100q-45 27 -94 39l-195 55q-270 78 -270 250q0 166 135 271q133 102 369 102q217 0 385 -72l-58 -284h-123l13 180q-102 53 -248 53q-123 0 -193 -41q-86 -49 -86 -147q0 -43 29 -68 q47 -45 150 -72l192 -53q260 -70 260 -241q0 -168 -151 -279q-150 -111 -392 -111q-224 0 -430 86z" />
<glyph unicode="t" vert-adv-y="2463" d="M303 926l29 135h276l56 270h196l-53 -270h426l-29 -135h-426l-106 -539q-23 -117 -23 -158q0 -106 129 -106q102 0 293 78l-27 -140q-184 -86 -354 -86q-250 0 -250 181q0 68 17 143l125 627h-279z" />
<glyph unicode="u" vert-adv-y="2463" d="M248 209q0 74 16 153l121 601h-125l27 122h319l-139 -700q-14 -70 -14 -127q0 -129 125 -129q150 0 344 254l116 580h-110l24 122h310l-195 -962h125l-25 -123h-321l43 209q-90 -104 -170 -158q-109 -76 -232 -76q-239 1 -239 234z" />
<glyph unicode="v" vert-adv-y="2463" d="M248 963l24 122h449l-27 -122h-159l155 -779h2l467 779h-160l25 122h367l-25 -122h-74l-577 -963h-201l-192 963h-74z" />
<glyph unicode="w" vert-adv-y="2463" d="M215 963l25 122h311l-25 -122h-86l-16 -725h2l315 686h166l41 -688h2l275 727h-99l25 122h272l-24 -122h-49l-363 -963h-192l-39 702h-2l-322 -702h-190l22 963h-49z" />
<glyph unicode="x" vert-adv-y="2463" d="M59 0l25 123h123l414 420l-246 420h-123l24 122h439l-27 -122h-86l195 -332l327 332h-102l22 122h363l-25 -122h-116l-416 -420l246 -420h118l-24 -123h-447l25 123h98l-186 321l-318 -321h101l-25 -123h-379z" />
<glyph unicode="y" vert-adv-y="2463" d="M197 -395l24 125h199l162 270h-68l-192 963h-74l24 122h449l-27 -122h-159l155 -779h2l467 779h-160l25 122h367l-25 -122h-74l-577 -963l-162 -270h147l-24 -125h-479z" />
<glyph unicode="z" vert-adv-y="2463" d="M123 0l29 141l858 822h-535l-39 -197h-123l64 319h897l-27 -122l-858 -822h608l41 203h123l-67 -344h-971z" />
<glyph unicode="{" vert-adv-y="2463" d="M299 580l25 122h112q270 2 275 283l4 123q4 217 129 342q129 129 344 129h131l-27 -123h-57q-330 -4 -330 -293l-2 -125q-4 -274 -282 -397q158 -90 157 -225q0 -78 -35 -170l-47 -125q-31 -86 -30 -144q0 -150 241 -149h60l-25 -125h-131q-137 0 -236 76q-96 74 -96 184 q0 84 49 213l45 121q31 86 31 141q0 141 -192 142h-113z" />
<glyph unicode="|" vert-adv-y="2463" d="M481 -297l375 1876h148l-375 -1876h-148z" />
<glyph unicode="}" vert-adv-y="2463" d="M168 -297l22 125h62q324 0 328 293l2 125q2 272 280 395q-156 86 -155 229q0 84 32 168l49 125q31 82 31 144q0 150 -241 149h-62l27 123h131q141 0 235 -74q96 -74 97 -184q0 -88 -50 -213l-45 -123q-31 -80 -30 -141q0 -141 192 -142h113l-25 -122h-112 q-270 -2 -275 -283l-4 -121q-2 -211 -131 -342q-131 -131 -340 -131h-131z" />
<glyph unicode="~" vert-adv-y="2463" d="M211 444q25 106 55 162q92 166 275 166q96 0 184 -70l98 -75l58 -47q23 -20 67 -21q115 0 160 180h147q-25 -106 -55 -161q-92 -166 -274 -166q-98 0 -187 69l-96 76l-57 47q-23 20 -70 21q-113 0 -158 -181h-147z" />
<glyph unicode="&#xa0;" vert-adv-y="0" />
<glyph unicode="&#xa2;" vert-adv-y="2463" d="M305 592q0 326 215 538q143 139 371 175l37 176h123l-35 -172q145 -12 287 -52l-66 -319h-123l16 209q-66 37 -139 37l-176 -879q115 0 324 72l-29 -144q-154 -51 -322 -61l-34 -172h-123l35 178q-102 14 -162 41q-199 97 -199 373zM514 602q0 -147 64 -219 q41 -47 116 -66l172 863q-143 -43 -231 -172q-121 -175 -121 -406z" />
<glyph unicode="&#xa3;" vert-adv-y="2463" d="M150 0l34 178q217 70 271 334l43 215h-172l24 125h172l53 258q37 188 164 297q125 111 312 111q129 0 272 -50l-63 -309h-123l16 209q-84 27 -133 27q-193 0 -232 -203l-67 -340h264l-24 -125h-265l-34 -168q-52 -255 -259 -387h674l-35 -172h-892z" />
<glyph unicode="&#xa5;" vert-adv-y="2463" d="M252 408l24 122h347l24 129l-29 80h-299l23 125h229l-186 494h-63l22 123h442l-24 -123h-150l207 -545h2l422 545h-147l24 123h355l-25 -123h-64l-382 -494h227l-25 -125h-299l-61 -77l-27 -132h346l-24 -122h-346l-58 -285h224l-25 -123h-641l24 123h222l57 285h-346z " />
<glyph unicode="&#xa9;" vert-adv-y="2463" d="M184 496q0 410 217 714q217 307 514 308q199 0 313.5 -139.5t114.5 -395.5q0 -410 -219 -715t-524 -305q-170 0 -278 115q-138 148 -138 418zM313 522q0 -449 316 -448q207 0 370 213q215 279 215 671q0 449 -317 449q-231 0 -407.5 -268.5t-176.5 -616.5zM422 618 q0 229 137 394q137 166 328 166q96 0 196 -27l15 -4l-37 -184h-84l18 92q-68 25 -123 24q-133 0 -227 -131q-96 -129 -96 -307q0 -240 209 -240q98 0 205 50l-21 -107l-22 -8q-123 -45 -211 -45q-135 0 -211 86q-76 83 -76 241z" />
<glyph unicode="&#xad;" vert-adv-y="2463" d="M256 543l31 147h932l-29 -147h-934z" />
<glyph unicode="&#xae;" vert-adv-y="2463" d="M184 496q0 410 217 714q217 307 514 308q199 0 313.5 -139.5t114.5 -395.5q0 -410 -219 -715t-524 -305q-170 0 -278 115q-138 148 -138 418zM313 522q0 -449 316 -448q207 0 370 213q215 279 215 671q0 449 -317 449q-231 0 -407.5 -268.5t-176.5 -616.5zM428 317l14 70 h64l139 707h-61l14 69h272q178 0 179 -164q0 -178 -199 -276l119 -336h24l-14 -70h-119l-121 369h-63l-60 -299h74l-14 -70h-248zM690 758h6q98 0 164 65q63 63 64 168q0 68 -33 86q-29 16 -98 17h-37z" />
<glyph unicode="&#xb4;" vert-adv-y="2463" d="M649 1282l281 322h227l-385 -322h-123z" />
<glyph unicode="&#x2000;" horiz-adv-x="800" vert-adv-y="0" />
<glyph unicode="&#x2001;" horiz-adv-x="1603" vert-adv-y="0" />
<glyph unicode="&#x2002;" horiz-adv-x="800" vert-adv-y="0" />
<glyph unicode="&#x2003;" horiz-adv-x="1603" vert-adv-y="0" />
<glyph unicode="&#x2004;" horiz-adv-x="532" vert-adv-y="0" />
<glyph unicode="&#x2005;" horiz-adv-x="399" vert-adv-y="0" />
<glyph unicode="&#x2006;" horiz-adv-x="266" vert-adv-y="0" />
<glyph unicode="&#x2007;" horiz-adv-x="266" vert-adv-y="0" />
<glyph unicode="&#x2008;" horiz-adv-x="198" vert-adv-y="0" />
<glyph unicode="&#x2009;" horiz-adv-x="319" vert-adv-y="0" />
<glyph unicode="&#x200a;" horiz-adv-x="88" vert-adv-y="0" />
<glyph unicode="&#x2010;" vert-adv-y="2463" d="M256 543l31 147h932l-29 -147h-934z" />
<glyph unicode="&#x2011;" vert-adv-y="2463" d="M256 543l31 147h932l-29 -147h-934z" />
<glyph unicode="&#x2012;" vert-adv-y="2463" d="M256 543l31 147h932l-29 -147h-934z" />
<glyph unicode="&#x2013;" vert-adv-y="2463" d="M229 543l29 147h987l-28 -147h-988z" />
<glyph unicode="&#x2014;" vert-adv-y="2463" d="M109 543l24 123h1229l-25 -123h-1228z" />
<glyph unicode="&#x2018;" vert-adv-y="2463" d="M645 963l37 180q86 418 385 436l-20 -98q-74 -12 -111 -68q-29 -47 -57 -156h122l-59 -294h-297z" />
<glyph unicode="&#x2019;" vert-adv-y="2463" d="M672 963l18 98q78 12 113 65q29 49 55 156h-123l60 297h297l-37 -180q-86 -418 -383 -436z" />
<glyph unicode="&#x201c;" vert-adv-y="2463" d="M438 1036l51 248q55 283 306 295l-21 -98q-109 -23 -133 -142l-10 -57h104l-49 -246h-248zM934 1036l49 248q59 283 305 295l-20 -98q-109 -23 -133 -142l-11 -57h105l-49 -246h-246z" />
<glyph unicode="&#x201d;" vert-adv-y="2463" d="M465 1036l18 99q109 23 133 141l13 55h-107l51 248h246l-49 -250q-59 -281 -305 -293zM958 1036l21 99q106 20 131 141l12 55h-104l49 248h246l-49 -250q-56 -281 -306 -293z" />
<glyph unicode="&#x2022;" vert-adv-y="2463" d="M481 756q0 138 111 245q113 109 252 109q106 0 173.5 -67.5t67.5 -170.5q0 -138 -110 -245q-113 -109 -254 -109q-94 0 -158 55q-82 68 -82 183z" />
<glyph unicode="&#x2026;" vert-adv-y="2463" d="M82 0l47 248h248l-49 -248h-246zM492 0l49 248h245l-49 -248h-245zM899 0l51 248h246l-49 -248h-248z" />
<glyph unicode="&#x202f;" horiz-adv-x="319" vert-adv-y="0" />
<glyph unicode="&#x205f;" horiz-adv-x="399" vert-adv-y="0" />
<glyph unicode="&#x20ac;" vert-adv-y="2463" d="M115 537l75 122h68q14 88 41 197h-121l76 125h88q66 152 119 227q213 309 571 310q160 0 367 -66l-58 -281h-122l4 170q-102 53 -213 54q-180 0 -310 -152q-78 -90 -145 -262h670l-76 -125h-635q-29 -113 -43 -197h555l-76 -122h-489l-2 -62q-6 -152 69 -254 q90 -123 254 -123q178 0 394 135l-33 -159q-230 -111 -412 -111q-233 0 -356 139q-88 96 -115 254q-8 57 -12 181h-133z" />
<glyph unicode="&#x2122;" vert-adv-y="2463" d="M291 739l16 95h78l113 555h-88l-21 -101h-88l39 193h463l-39 -193h-88l18 101h-86l-110 -555h75l-18 -95h-264zM702 739l21 95h57l111 555h-57l18 92h211l35 -445l192 445h203l-18 -92h-60l-110 -555h57l-19 -95h-161l114 580h-2l-202 -442h-88l-33 411l-111 -549h-158z " />
<glyph unicode="&#xe000;" horiz-adv-x="1085" vert-adv-y="2169" d="M0 1085h1085v-1085h-1085v1085z" />
<glyph unicode="&#xf001;" vert-adv-y="2463" d="M70 0l24 123h123l164 815h-119l29 135h117l34 174q35 166 138 260q104 96 251 97q92 0 203 -50l-43 -208h-123v122q-31 18 -59 19q-123 0 -160 -187l-45 -227h653l-190 -950h125l-25 -123h-419l24 123h98l164 815h-456l-164 -815h110l-22 -123h-432zM1114 1346l41 196 h197l-39 -196h-199z" />
<glyph unicode="&#xfb01;" vert-adv-y="2463" d="M70 0l24 123h123l164 815h-119l29 135h117l34 174q35 166 138 260q104 96 251 97q92 0 203 -50l-43 -208h-123v122q-31 18 -59 19q-123 0 -160 -187l-45 -227h653l-190 -950h125l-25 -123h-419l24 123h98l164 815h-456l-164 -815h110l-22 -123h-432zM1114 1346l41 196 h197l-39 -196h-199z" />
<glyph unicode="&#xf002;" vert-adv-y="2463" d="M70 0l24 123h123l160 803h-117l27 135h119l36 186q71 356 467 357q78 0 193 -17l59 -8h199l-293 -1456h125l-25 -123h-419l24 123h98l267 1327q-125 37 -242 37q-119 0 -170 -39q-55 -41 -76 -148l-47 -239h295l-27 -135h-295l-161 -803h110l-22 -123h-432z" />
<glyph unicode="&#xfb02;" vert-adv-y="2463" d="M70 0l24 123h123l160 803h-117l27 135h119l36 186q71 356 467 357q78 0 193 -17l59 -8h199l-293 -1456h125l-25 -123h-419l24 123h98l267 1327q-125 37 -242 37q-119 0 -170 -39q-55 -41 -76 -148l-47 -239h295l-27 -135h-295l-161 -803h110l-22 -123h-432z" />
<glyph unicode="&#xfb03;" horiz-adv-x="3686" vert-adv-y="2463" d="M2605 0l25 123h391l166 840h-389l25 122h587l-192 -962h370l-24 -123h-959zM3253 1331l49 248h223l-49 -248h-223zM1376 0l25 123h272l160 803h-270l26 135h273l22 119q43 223 156 323q109 100 313 101q174 0 349 -80l-52 -246h-123v156q-88 47 -174 47q-117 0 -176 -62 q-61 -66 -92 -219l-27 -139h445l-29 -135h-442l-162 -803h371l-25 -123h-840zM147 0l25 123h272l160 803h-270l26 135h273l22 119q43 223 156 323q109 100 313 101q174 0 349 -80l-52 -246h-123v156q-88 47 -174 47q-117 0 -176 -62q-61 -66 -92 -219l-27 -139h445l-29 -135 h-442l-162 -803h371l-25 -123h-840z" />
<glyph unicode="&#xfb04;" horiz-adv-x="3686" vert-adv-y="2463" d="M2605 0l25 123h391l266 1333h-391l27 123h586l-291 -1456h370l-24 -123h-959zM1376 0l25 123h272l160 803h-270l26 135h273l22 119q43 223 156 323q109 100 313 101q174 0 349 -80l-52 -246h-123v156q-88 47 -174 47q-117 0 -176 -62q-61 -66 -92 -219l-27 -139h445 l-29 -135h-442l-162 -803h371l-25 -123h-840zM147 0l25 123h272l160 803h-270l26 135h273l22 119q43 223 156 323q109 100 313 101q174 0 349 -80l-52 -246h-123v156q-88 47 -174 47q-117 0 -176 -62q-61 -66 -92 -219l-27 -139h445l-29 -135h-442l-162 -803h371l-25 -123 h-840z" />
</font>
</defs>
</svg>
