<?xml version="1.0" standalone="no"?>
<!DOCTYPE svg PUBLIC "-//W3C//DTD SVG 1.1//EN" "http://www.w3.org/Graphics/SVG/1.1/DTD/svg11.dtd" >
<svg xmlns="http://www.w3.org/2000/svg">
<metadata>
This is a custom SVG webfont generated by Font Squirrel.
Copyright   : Copyright c 2001 by Bigelow  Holmes Inc Instructions copyright c 2001 by URW
Designer    : Kris Holmes and Charles Bigelow
Foundry     : Bigelow  Holmes Inc
Foundry URL : httpwwwurwppde
</metadata>
<defs>
<font id="webfontyTkWFOt4" horiz-adv-x="1228" vert-adv-y="2048" >
<font-face units-per-em="2048" ascent="1638" descent="-410" />
<missing-glyph horiz-adv-x="500" />
<glyph unicode=" " vert-adv-y="0" />
<glyph unicode="!" vert-adv-y="2463" d="M492 0v221h245v-221h-245zM516 1085v396h197v-396l-37 -665h-123z" />
<glyph unicode="&#x22;" vert-adv-y="2463" d="M244 1579h248l-52 -543h-147zM737 1579h246l-47 -543h-150z" />
<glyph unicode="#" vert-adv-y="2463" d="M41 444l31 123h235l86 346h-284l30 123h285l111 445h137l-113 -445h260l111 445h137l-113 -445h236l-33 -123h-233l-86 -346h282l-30 -123h-283l-111 -444h-137l113 444h-260l-111 -444h-135l110 444h-235zM442 567h260l86 346h-260z" />
<glyph unicode="$" vert-adv-y="2463" d="M143 86v299h123l25 -199q121 -53 233 -63v575l-90 54q-254 150 -254 370q0 176 129 275q90 68 242 84v123h123v-123q160 0 327 -72v-285h-122l-25 199q-88 35 -160 35h-20v-535l88 -47q143 -76 209 -164q59 -80 59 -202q0 -199 -137 -316q-90 -78 -244 -94v-123h-125v123 q-199 14 -381 86zM358 1133q0 -131 140 -211l53 -31v467q-106 -25 -152 -86q-41 -53 -41 -139zM649 123q82 10 133 70q70 78 70 194q0 133 -135 211l-68 37v-512z" />
<glyph unicode="%" vert-adv-y="2463" d="M20 1110q0 168 74 268q72 102 190.5 102.5t190.5 -102.5q74 -100 74 -268t-74 -268q-72 -102 -194 -103q-104 0 -172 84q-89 107 -89 287zM61 -37l973 1555h131l-975 -1555h-129zM158 1110q0 -246 127 -246q129 0 129 246q0 248 -129 248q-127 0 -127 -248zM680 371 q0 170 72 268q70 100 190 100q123 0 193 -100q72 -98 71 -266q0 -174 -71 -273q-74 -100 -195 -100q-106 0 -174 82q-86 105 -86 289zM815 373q0 -250 127 -250q129 0 129 248q0 246 -129 245q-127 1 -127 -243z" />
<glyph unicode="&#x26;" vert-adv-y="2463" d="M57 414q0 176 107 313q66 86 180 162q-72 168 -72 299q0 152 84 242q82 88 232 88q152 0 225 -82q66 -72 66 -197q0 -143 -111 -260q-66 -68 -197 -143q172 -332 308 -504q90 121 90 301l-2 57h-99v123h324v-123h-72q-8 -160 -41 -250q-31 -88 -121 -200l109 -117h125 v-123h-264l-94 111q-181 -147 -357 -148q-186 0 -303 125q-117 126 -117 326zM236 440q0 -150 75 -241q74 -88 203 -88q127 0 244 98q-178 223 -352 575q-170 -133 -170 -344zM453 1198q0 -139 59 -248l2 -4l4 -8q84 59 121 109q59 82 59 186q0 162 -114 162 q-131 0 -131 -197z" />
<glyph unicode="'" vert-adv-y="2463" d="M467 1579h295l-74 -616h-147z" />
<glyph unicode="(" vert-adv-y="2463" d="M322 641q0 422 247 702q98 115 226 177q82 39 186 59v-123q-195 -59 -303 -231q-147 -227 -148 -584q0 -369 162 -602q106 -156 289 -211v-125q-147 31 -260 102q-184 120 -295 351q-104 217 -104 485z" />
<glyph unicode=")" vert-adv-y="2463" d="M248 -172q197 59 305 231q145 223 145 582q0 375 -159 604q-106 154 -291 211v123q147 -29 262 -102q182 -119 293 -349q104 -215 104 -487q0 -420 -245 -702q-100 -113 -226 -175q-86 -41 -188 -61v125z" />
<glyph unicode="*" vert-adv-y="2463" d="M162 1073l57 191l322 -152q-29 -29 -29 -68v-22zM289 721l233 270q20 -37 76 -53l-139 -324zM518 1481h197l-51 -353q-39 14 -50 15q-12 0 -51 -15zM623 936q52 6 79 49l244 -258l-164 -113zM686 1110l326 154l55 -193l-350 -47v6v4v2q0 43 -31 74z" />
<glyph unicode="+" vert-adv-y="2463" d="M98 543v147h443v443h147v-443h442v-147h-442v-443h-147v443h-443z" />
<glyph unicode="," vert-adv-y="2463" d="M467 0v297h295v-180q-4 -420 -295 -439v101q76 12 96 65q20 47 27 156h-123z" />
<glyph unicode="-" vert-adv-y="2463" d="M147 543v147h934v-147h-934z" />
<glyph unicode="." vert-adv-y="2463" d="M467 0v297h295v-297h-295z" />
<glyph unicode="/" vert-adv-y="2463" d="M98 -297l869 1876h163l-868 -1876h-164z" />
<glyph unicode="0" vert-adv-y="2463" d="M96 741q0 360 140 568q137 209 378.5 209t378.5 -209q139 -207 140 -568q0 -365 -139.5 -571.5t-387.5 -206.5q-213 0 -344 168q-166 215 -166 610zM309 741q0 -315 78 -483q76 -172 225 -172q307 0 308 653q0 322 -78 486q-80 170 -227.5 170t-227.5 -170 q-78 -169 -78 -484z" />
<glyph unicode="1" vert-adv-y="2463" d="M113 0v123h442v1190l-442 -111v123l641 193v-1395h444v-123h-1085z" />
<glyph unicode="2" vert-adv-y="2463" d="M133 0v172q109 184 258 322l103 92l122 112q238 219 238 420q0 127 -76 201q-76 76 -200 76q-119 0 -261 -86l-22 -236h-125v350q244 94 446 95q207 0 328 -109t121 -291q0 -131 -55 -229q-59 -104 -201 -221l-86 -70q-225 -190 -283 -268q-55 -70 -84 -158h752v-172 h-975z" />
<glyph unicode="3" vert-adv-y="2463" d="M184 10v375h123l27 -248q84 -51 205 -51q154 0 241 86q90 86 90 238q0 317 -415 317h-136v125h115q395 0 395 295q0 115 -73 180q-72 68 -199 68q-123 0 -203 -39l-12 -209h-123v317q197 53 359 54q453 0 452 -355q0 -160 -104 -262q-66 -59 -185 -102q100 -31 160 -66 q180 -113 180 -334q0 -195 -139 -315.5t-367 -120.5q-154 0 -305 31z" />
<glyph unicode="4" vert-adv-y="2463" d="M84 420v147l629 914h196v-914h224v-147h-224v-297h199v-123h-641v123h270v297h-653zM238 567h499v725z" />
<glyph unicode="5" vert-adv-y="2463" d="M250 0v322h123l24 -199q92 -37 158 -37q132 0 221 98q90 100 90 248q0 168 -118 266q-121 98 -322 99q-68 0 -145 -15v699h763v-172h-618v-394q66 4 74 5q262 0 418 -132q158 -129 157 -348q0 -209 -145 -342q-147 -135 -371 -135q-116 0 -309 37z" />
<glyph unicode="6" vert-adv-y="2463" d="M123 711q0 385 161.5 596t452.5 211q129 0 328 -72v-318h-125l-22 211q-86 55 -179 56q-215 0 -323 -217q-77 -151 -80 -406q68 92 133 133q102 63 238 64q193 0 307 -133q119 -135 119 -351q0 -231 -137.5 -376.5t-354.5 -145.5q-242 0 -381 199q-137 199 -137 549z M350 479q0 -160 92 -276q92 -117 226 -117q111 0 178 80q86 100 86 297q0 377 -262 377q-135 0 -228 -105q-92 -100 -92 -256z" />
<glyph unicode="7" vert-adv-y="2463" d="M145 1294v187h914v-187l-88 -118q-256 -354 -375 -711q-84 -252 -84 -465h-248q61 434 408 948l125 185l108 161h-760z" />
<glyph unicode="8" vert-adv-y="2463" d="M121 373q0 221 237 391l56 39l-54 41q-172 129 -172 301q0 162 125 266q125 106 322 107q187 0 301 -93q115 -92 115 -239q0 -121 -58 -199q-35 -47 -149 -151l-47 -43l67 -45q143 -98 197 -177q51 -76 51 -190q0 -184 -137 -301q-139 -117 -365 -117q-221 0 -356 113 q-133 109 -133 297zM317 377q0 -129 86 -209q84 -82 224 -82q123 0 200 72q76 70 76 186q0 84 -39 135q-37 53 -149 129l-203 135q-109 -117 -152 -190.5t-43 -175.5zM373 1184q0 -96 127 -195l98 -74l84 -53q184 170 184 312q0 106 -63.5 163.5t-190.5 57.5 q-113 0 -176 -62q-63 -57 -63 -149z" />
<glyph unicode="9" vert-adv-y="2463" d="M96 993q0 233 137 377q139 147 353 148q244 0 383 -199q137 -195 137 -549q0 -383 -164 -596q-162 -211 -453 -211q-127 0 -325 72v315h123l24 -209q86 -55 178 -55q213 0 324 215q77 151 80 406q-70 -92 -133 -132q-102 -63 -240 -63q-193 0 -307 133q-117 133 -117 348 zM297 1018q0 -377 262 -377q137 0 227 102q92 100 93 256q0 164 -95 279q-96 117 -225 117q-109 0 -176 -80q-86 -102 -86 -297z" />
<glyph unicode=":" vert-adv-y="2463" d="M467 0v297h295v-297h-295zM467 791v294h295v-294h-295z" />
<glyph unicode=";" vert-adv-y="2463" d="M467 0v297h295v-180q-4 -420 -295 -439v101q76 12 96 65q20 47 27 156h-123zM467 791v294h295v-294h-295z" />
<glyph unicode="&#x3c;" vert-adv-y="2463" d="M98 616l1032 619v-174l-743 -445l743 -444v-172z" />
<glyph unicode="=" vert-adv-y="2463" d="M98 346v148h1032v-148h-1032zM98 739v150h1032v-150h-1032z" />
<glyph unicode="&#x3e;" vert-adv-y="2463" d="M98 0v172l744 444l-744 445v174l1032 -619z" />
<glyph unicode="?" vert-adv-y="2463" d="M203 1073v377q219 68 409 68q467 0 467 -338q0 -166 -147 -277l-55 -41l-13 -8q-4 -2 -8 -6t-8 -6t-15.5 -9.5t-19.5 -13.5q-94 -63 -131 -117q-45 -53 -45 -221v-61h-197v57q0 242 219 400l66 47q143 100 143 237q0 106 -69.5 170t-194.5 64q-121 0 -254 -64l-24 -258 h-123zM416 0v221h246v-221h-246z" />
<glyph unicode="@" vert-adv-y="2463" d="M86 719q0 354 164 577q164 221 426 222q391 0 391 -476v-628h119v-123h-242v366h-24q-35 -154 -105 -251q-84 -121 -194 -121q-106 0 -170 102q-66 100 -66 266q0 221 113 371q113 154 278 154q57 0 160 -27q-29 137 -102 192q-63 51 -170 52q-205 0 -328 -183 q-125 -182 -125 -479q0 -299 131 -473t352 -174q117 0 250 64v-138q-150 -49 -254 -49q-276 0 -438 203q-166 207 -166 553zM532 674q0 -108 31 -178t76 -70q70 0 143.5 125t161.5 377v110q-80 47 -149 47q-123 0 -193 -110q-70 -108 -70 -301z" />
<glyph unicode="A" vert-adv-y="2463" d="M25 0v123h73l422 1358h189l419 -1358h74v-123h-436v123h158l-101 321h-495l-101 -321h144v-123h-346zM367 567h417l-206 676h-3z" />
<glyph unicode="B" vert-adv-y="2463" d="M74 0v123h174v1235h-174v123h618q375 0 375 -326q0 -166 -102 -272q-61 -63 -174 -113q98 -25 147 -55q174 -104 174 -338q0 -377 -444 -377h-594zM444 123h162q295 0 295 262q0 150 -96 233q-92 84 -264 84h-97v-579zM444 827h99q311 0 311 312q0 219 -211 219h-199 v-531z" />
<glyph unicode="C" vert-adv-y="2463" d="M123 747.5q0 370.5 156 569.5q158 201 446 201q160 0 381 -66v-342h-123l-29 231q-117 53 -225 54q-186 0 -291 -176q-102 -172 -102 -486q0 -297 115 -467q113 -168 313 -168q174 0 362 135v-159q-206 -111 -387 -111q-289 0 -452.5 207t-163.5 577.5z" />
<glyph unicode="D" vert-adv-y="2463" d="M49 0v123h148v1235h-148v123h510q608 0 608 -707q0 -356 -159.5 -565t-429.5 -209h-529zM395 123h117q442 0 442 631q0 309 -110.5 456.5t-343.5 147.5h-105v-1235z" />
<glyph unicode="E" vert-adv-y="2463" d="M74 0v123h184v1235h-184v123h983v-359h-123v236h-477v-545h291v125h122v-371h-122v123h-291v-555h524v248h125v-383h-1032z" />
<glyph unicode="F" vert-adv-y="2463" d="M111 0v123h223v1235h-223v123h1026v-371h-123v248h-484v-582h297v125h123v-371h-123v123h-297v-530h273v-123h-692z" />
<glyph unicode="G" vert-adv-y="2463" d="M74 748q0 371 157 571q156 199 457 199q172 0 369 -62v-346h-123l-29 231q-109 53 -213 54q-406 0 -405 -658q0 -305 114 -473q115 -166 320 -166q74 0 162 33v406h-172v122h370v-585q-180 -111 -383 -111q-297 0 -460.5 207t-163.5 578z" />
<glyph unicode="H" vert-adv-y="2463" d="M61 0v123h111v1235h-111v123h408v-123h-98v-531h487v531h-98v123h407v-123h-110v-1235h110v-123h-407v123h98v579h-487v-579h98v-123h-408z" />
<glyph unicode="I" vert-adv-y="2463" d="M160 0v123h354v1235h-354v123h907v-123h-354v-1235h354v-123h-907z" />
<glyph unicode="J" vert-adv-y="2463" d="M111 31v413h122l39 -309q113 -49 195 -49q115 0 168 55q51 53 51 181v1036h-395v123h852v-123h-260v-996q0 -215 -92.5 -307t-303.5 -92q-159 0 -376 68z" />
<glyph unicode="K" vert-adv-y="2463" d="M74 0v123h131v1235h-131v123h432v-123h-105v-602h7l430 602h-111v123h356v-123h-92l-397 -547l528 -688h74v-123h-424v123h111l-475 616h-7v-616h123v-123h-450z" />
<glyph unicode="L" vert-adv-y="2463" d="M86 0v123h248v1235h-248v123h680v-123h-236v-1223h498v346h123v-481h-1065z" />
<glyph unicode="M" vert-adv-y="2463" d="M25 0v123h86v1235h-86v123h284l307 -1018h2l318 1018h268v-123h-86v-1235h86v-123h-319v123h71v1005h-2l-290 -933h-136l-290 970h-2v-1042h86v-123h-297z" />
<glyph unicode="N" vert-adv-y="2463" d="M74 0v123h110v1235h-110v123h233l611 -1075h2v952h-109v123h344v-123h-111v-1358h-124l-609 1075h-4v-952h113v-123h-346z" />
<glyph unicode="O" vert-adv-y="2463" d="M61 741q0 344 154 559q154 217 399 218q244 0 400 -218q154 -215 153 -559q0 -348 -153.5 -563t-405.5 -215q-215 0 -358 174q-189 225 -189 604zM274 739q0 -303 91 -479q88 -174 249 -174q164 0 246 150q94 168 94 501q0 311 -90 486q-92 172 -250 172 q-160 0 -249 -172q-91 -175 -91 -484z" />
<glyph unicode="P" vert-adv-y="2463" d="M86 0v123h197v1235h-197v123h662q377 0 376 -363q0 -240 -141 -381q-139 -139 -385 -139h-117v-475h285v-123h-680zM481 723h111q322 0 321 367q0 268 -231 268h-201v-635z" />
<glyph unicode="Q" vert-adv-y="2463" d="M61 739q0 342 154 561q154 217 399.5 217.5t399.5 -217.5t153 -559q0 -324 -133 -532q-92 -143 -246 -211q162 -100 435 -162q-61 -78 -168 -158q-213 82 -441 285q-150 25 -237 66q-100 49 -178 176q-138 227 -138 534zM274 739q0 -303 91 -479q88 -174 249 -174 q164 0 246 150q94 168 94 501q0 311 -90 486q-92 172 -250 172q-160 0 -249 -172q-91 -175 -91 -484z" />
<glyph unicode="R" vert-adv-y="2463" d="M86 0v123h129v1235h-129v123h588q175 0 276 -99q102 -98 103 -264q0 -154 -92 -270q-59 -74 -158 -139l313 -586h88v-123h-254l-338 647h-198v-524h129v-123h-457zM414 770h98q330 0 330 326q0 262 -250 262h-178v-588z" />
<glyph unicode="S" vert-adv-y="2463" d="M152 61v359h122l25 -236q188 -98 311 -98q125 0 205 80q80 76 80 199q0 158 -201 262l-188 98q-188 96 -256 180t-68 217q0 395 449 396q184 0 375 -74v-359h-123l-25 236q-125 74 -242 74q-242 0 -241 -246q0 -100 55 -150q47 -41 176 -110l168 -90q195 -104 256.5 -178 t61.5 -207q0 -205 -135.5 -328t-358.5 -123q-204 0 -446 98z" />
<glyph unicode="T" vert-adv-y="2463" d="M61 1085v396h1106v-396h-123v273h-329v-1235h258v-123h-717v123h260v1235h-332v-273h-123z" />
<glyph unicode="U" vert-adv-y="2463" d="M61 1358v123h457v-123h-135v-836q0 -207 71.5 -321.5t200.5 -114.5q266 0 267 446v826h-138v123h383v-123h-123v-862q0 -250 -110.5 -391.5t-312.5 -141.5q-436 0 -437 588v807h-123z" />
<glyph unicode="V" vert-adv-y="2463" d="M27 1358v123h436v-123h-158l346 -1120h2l348 1120h-143v123h346v-123h-74l-421 -1358h-189l-420 1358h-73z" />
<glyph unicode="W" vert-adv-y="2463" d="M23 1358v123h309v-123h-99l136 -1077h2l184 976h158l184 -972h2l133 1073h-98v123h272v-123h-49l-170 -1358h-188l-183 975h-2l-184 -975h-188l-170 1358h-49z" />
<glyph unicode="X" vert-adv-y="2463" d="M49 0v123h111l350 606l-363 629h-98v123h420v-123h-100l288 -502l289 502h-129v123h363v-123h-107l-352 -613l360 -622h99v-123h-445v123h125l-287 495l-284 -495h153v-123h-393z" />
<glyph unicode="Y" vert-adv-y="2463" d="M27 1358v123h462v-123h-147l313 -545h2l316 545h-148v123h375v-123h-86l-401 -696v-539h223v-123h-641v123h221v536l-403 699h-86z" />
<glyph unicode="Z" vert-adv-y="2463" d="M147 0v135l701 1223h-557v-273h-123v396h899v-123l-698 -1223h587v297h125v-432h-934z" />
<glyph unicode="[" vert-adv-y="2463" d="M395 -297v1876h543v-123h-371v-1628h371v-125h-543z" />
<glyph unicode="\" vert-adv-y="2463" d="M98 1579h164l868 -1876h-163z" />
<glyph unicode="]" vert-adv-y="2463" d="M291 -172h371v1628h-371v123h543v-1876h-543v125z" />
<glyph unicode="^" vert-adv-y="2463" d="M145 543l469 938l469 -938h-165l-304 606l-303 -606h-166z" />
<glyph unicode="_" vert-adv-y="2463" d="M0 0h1229v-147h-1229v147z" />
<glyph unicode="`" vert-adv-y="2463" d="M391 1604h230l215 -322h-123z" />
<glyph unicode="a" vert-adv-y="2463" d="M147 293q0 188 144 276q137 84 459 84h84v168q0 166 -203 166q-106 0 -258 -57l-25 -127h-123v215q230 92 467 92q193 0 264 -63q74 -63 74 -228v-696h137v-123h-313l-20 119q-170 -143 -351 -144q-152 0 -244 86.5t-92 231.5zM358 301q0 -178 187 -178q143 0 289 156 v251h-54q-229 0 -325 -51q-97 -53 -97 -178z" />
<glyph unicode="b" vert-adv-y="2463" d="M61 1456v123h322v-715q72 109 145 166q102 80 222 80q166 0 266 -143q102 -145 102 -379q0 -286 -135 -449q-135 -164 -369 -164q-86 0 -231 25h-199v1456h-123zM383 145q141 -23 213 -22q166 0 240 106q72 104 71 349q0 373 -213 372q-164 0 -311 -233v-572z" />
<glyph unicode="c" vert-adv-y="2463" d="M147 555q0 262 144 408q144 147 399 147q178 0 330 -53v-346h-125l-33 231q-117 45 -182 45q-143 0 -231.5 -118.5t-88.5 -315.5q0 -205 98.5 -317.5t270.5 -112.5q133 0 301 78v-156q-145 -70 -338 -70q-250 0 -397.5 158t-147.5 422z" />
<glyph unicode="d" vert-adv-y="2463" d="M111 498q0 286 135 448q135 164 372 164q86 0 228 -25v371h-246v123h444v-1456h123v-123h-321v221q-72 -109 -146 -166q-101 -80 -221 -80q-166 0 -266 144q-102 146 -102 379zM322 510q0 -375 213 -375q162 0 311 236v567q-154 25 -213 25q-166 0 -240 -109 q-71 -104 -71 -344z" />
<glyph unicode="e" vert-adv-y="2463" d="M123 551q0 252 147.5 405.5t388.5 153.5q446 0 447 -543v-61h-772q16 -121 41 -176q92 -207 352 -207q156 0 348 88v-150q-175 -86 -375 -86q-260 0 -417 158q-160 160 -160 418zM336 629h559v47q0 311 -250 311q-154 0 -237 -123q-60 -88 -72 -235z" />
<glyph unicode="f" vert-adv-y="2463" d="M147 0v123h273v803h-273v135h273v119q0 225 90 323q92 100 293 101q172 0 364 -80v-246h-123l-30 156q-104 47 -185 47q-120 0 -165 -62q-47 -63 -48 -219v-139h445v-135h-445v-803h371v-123h-840z" />
<glyph unicode="g" vert-adv-y="2463" d="M86 -203q0 94 125 178l55 37q-94 57 -94 140q0 86 117 192l35 35q-90 53 -138 117q-66 90 -65 217q0 181 123 288q125 109 321 109q92 0 187 -33l407 33l-57 -176l-205 31q102 -129 102 -260q0 -166 -125 -277q-126 -111 -313 -111q-41 0 -121 15l-39 -35 q-59 -51 -59 -92q0 -57 139 -58h314q309 0 309 -233q0 -334 -565 -334q-453 0 -453 217zM283 -166q0 -131 280 -131q158 0 250 49t92 129q0 119 -178 119h-324l-38 -31q-82 -63 -82 -135zM317 702q0 -117 68 -188q68 -74 178 -74q109 0 180.5 76t71.5 193q0 111 -55 184 q-70 94 -193 94q-109 0 -180 -82q-70 -78 -70 -203z" />
<glyph unicode="h" vert-adv-y="2463" d="M70 0v123h123v1333h-123v123h319v-702q68 102 137 157q94 76 215 76q301 0 301 -387v-600h125v-123h-419v123h98v577q0 256 -164 256q-150 0 -293 -251v-582h113v-123h-432z" />
<glyph unicode="i" vert-adv-y="2463" d="M147 0v123h392v840h-392v122h588v-962h371v-123h-959zM528 1331v248h222v-248h-222z" />
<glyph unicode="j" vert-adv-y="2463" d="M160 -25h123l30 -219q70 -53 148 -53q131 0 186 96q57 94 58 328v836h-445v122h643v-1019q0 -231 -112.5 -358.5t-315.5 -127.5q-139 0 -315 76v319zM692 1331v248h223v-248h-223z" />
<glyph unicode="k" vert-adv-y="2463" d="M74 0v123h123v1333h-123v123h321v-987h25l356 371h-114v122h432v-122h-142l-362 -363l487 -477h99v-123h-355v123l-401 401h-25v-401h99v-123h-420z" />
<glyph unicode="l" vert-adv-y="2463" d="M147 0v123h392v1333h-392v123h588v-1456h371v-123h-959z" />
<glyph unicode="m" vert-adv-y="2463" d="M27 0v123h73v840h-73v122h252v-206q70 131 110 176q53 55 127 55q101 0 148 -92q23 -43 34 -139q43 104 88 155q66 76 156 76q188 0 188 -272v-715h74v-123h-254v752q0 205 -63 204q-51 0 -109 -86q-27 -39 -47 -88q-27 -70 -26 -92v-567h73v-123h-252v799q0 158 -65 157 q-86 0 -182 -266v-567h73v-123h-325z" />
<glyph unicode="n" vert-adv-y="2463" d="M70 0v123h123v840h-123v122h319v-208q68 102 137 157q94 76 215 76q301 0 301 -387v-600h125v-123h-419v123h98v577q0 256 -164 256q-150 0 -293 -251v-582h113v-123h-432z" />
<glyph unicode="o" vert-adv-y="2463" d="M111 543q0 264 135 415.5t368.5 151.5t368.5 -151.5t135 -413.5q0 -267 -135 -418q-135 -152 -377 -152q-207 0 -334 125q-161 156 -161 443zM324 545q0 -446 290.5 -446.5t290.5 446.5q0 442 -290.5 442t-290.5 -442z" />
<glyph unicode="p" vert-adv-y="2463" d="M61 -272h123v1235h-123v122h322v-221q72 109 145 166q102 80 222 80q166 0 266 -143q102 -145 102 -379q0 -286 -135 -449q-135 -164 -369 -164q-86 0 -231 25v-272h248v-123h-570v123zM383 145q141 -23 213 -22q166 0 240 106q72 104 71 349q0 373 -213 372 q-164 0 -311 -233v-572z" />
<glyph unicode="q" vert-adv-y="2463" d="M111 498q0 286 135 448q135 164 372 164l228 -25h198v-1357h123v-123h-567v125h246v491q-72 -109 -146 -166q-101 -80 -221 -80q-166 0 -266 144q-102 146 -102 379zM322 510q0 -375 213 -375q162 0 311 236v567q-154 25 -213 25q-166 0 -240 -109q-71 -104 -71 -344z " />
<glyph unicode="r" vert-adv-y="2463" d="M74 0v123h260v840h-260v122h456v-211q74 108 142 160q94 76 207 76q117 0 227 -68v-327h-125l-18 186q-55 37 -119 37q-184 0 -314 -236v-579h369v-123h-825z" />
<glyph unicode="s" vert-adv-y="2463" d="M172 61v297h125l25 -184q195 -76 331 -76q240 0 240 168q0 66 -41 103q-39 35 -143 63l-203 55q-178 47 -250 117q-78 72 -78 191q0 315 432 315q219 0 404 -72v-284h-123l-27 180q-111 53 -254 53q-109 0 -172 -35q-72 -41 -71 -127q0 -111 206 -166l201 -53 q168 -43 242 -110q72 -68 71 -183q0 -158 -122 -247q-121 -90 -342 -91q-226 0 -451 86z" />
<glyph unicode="t" vert-adv-y="2463" d="M119 926v135h278v270h197v-270h426v-135h-426v-539q0 -156 33 -211q31 -53 127 -53q104 0 278 78v-140q-166 -86 -336 -86q-162 0 -229 74q-70 76 -70 250v627h-278z" />
<glyph unicode="u" vert-adv-y="2463" d="M68 963v122h321v-700q0 -256 164 -256q147 0 293 254v580h-113v122h309v-962h123v-123h-319v209q-68 -102 -137 -158q-94 -76 -215 -76q-303 0 -304 387v601h-122z" />
<glyph unicode="v" vert-adv-y="2463" d="M55 963v122h447v-122h-160l311 -779h2l312 779h-160v122h367v-122h-74l-385 -963h-201l-385 963h-74z" />
<glyph unicode="w" vert-adv-y="2463" d="M23 963v122h311v-122h-86l129 -725h2l176 686h168l178 -688h2l129 727h-96v122h270v-122h-49l-170 -963h-192l-179 702h-2l-182 -702h-190l-170 963h-49z" />
<glyph unicode="x" vert-adv-y="2463" d="M59 0v123h123l330 420l-330 420h-123v122h439v-122h-88l262 -332l260 332h-105v122h363v-122h-119l-330 -420l330 -420h119v-123h-447v123h101l-254 321l-252 -321h100v-123h-379z" />
<glyph unicode="y" vert-adv-y="2463" d="M55 963v122h447v-122h-160l311 -779h2l312 779h-160v122h367v-122h-74l-385 -963l-109 -270h148v-125h-480v125h199l109 270h-68l-385 963h-74z" />
<glyph unicode="z" vert-adv-y="2463" d="M123 0v141l694 822h-534v-197h-123v319h897v-122l-697 -822h609v203h125v-344h-971z" />
<glyph unicode="{" vert-adv-y="2463" d="M182 580v122h113q227 0 227 197q0 45 -8 86l-20 123q-14 90 -15 133q0 147 113 244q109 94 278 94h131v-123h-59q-276 0 -276 -207q0 -45 8 -86l20 -125q8 -41 8 -84q0 -127 -77 -217q-49 -55 -131 -96q98 -51 141 -104q68 -86 67 -211q0 -27 -8 -80l-20 -125 q-8 -41 -8 -92q0 -201 276 -201h59v-125h-131q-172 0 -280 96q-111 94 -111 248q0 39 15 129l20 121q8 41 8 90q0 193 -227 193h-113z" />
<glyph unicode="|" vert-adv-y="2463" d="M541 -297v1876h147v-1876h-147z" />
<glyph unicode="}" vert-adv-y="2463" d="M227 -172h60q276 0 276 205q0 47 -8 88l-20 125q-8 53 -9 84q0 127 78 217q41 45 131 94q-96 51 -139 107q-70 88 -70 208q0 29 9 82l20 125q8 41 8 90q0 203 -276 203h-60v123h131q174 0 281 -94q111 -96 111 -248q0 -43 -15 -129l-20 -123q-8 -41 -8 -88 q0 -195 227 -195h113v-122h-113q-227 0 -227 -197q0 -45 8 -86l20 -121q14 -86 15 -133q0 -150 -111 -244q-113 -96 -281 -96h-131v125z" />
<glyph unicode="~" vert-adv-y="2463" d="M121 444q2 100 22 160q59 168 242 168q96 0 201 -70l110 -75l68 -47q27 -20 76 -21q119 0 121 180h147q-2 -100 -23 -159q-59 -168 -241 -168q-96 0 -201 69l-111 76l-67 47q-27 20 -76 21q-119 0 -121 -181h-147z" />
<glyph unicode="&#xa0;" vert-adv-y="0" />
<glyph unicode="&#xa2;" vert-adv-y="2463" d="M172 737q0 283 158 434q104 104 299 134v176h125v-172q141 -10 295 -52v-319h-123l-25 209q-71 37 -147 37v-879q115 0 307 72v-144q-147 -53 -307 -61v-172h-125v178q-201 25 -312 141q-145 152 -145 418zM383 733q0 -223 90 -327q35 -43 86 -66q25 -10 70 -23v863 q-61 -20 -101 -50q-145 -108 -145 -397z" />
<glyph unicode="&#xa3;" vert-adv-y="2463" d="M150 0v178q199 70 202 334v215h-172v125h172v258q0 186 107 297q104 111 286 111q129 0 283 -50v-309h-123l-24 209q-86 27 -142 27q-188 0 -188 -203v-340h264v-125h-264v-168q0 -254 -182 -387h673v-172h-892z" />
<glyph unicode="&#xa5;" vert-adv-y="2463" d="M49 1358v123h440v-123h-147l313 -545h2l316 545h-148v123h355v-123h-66l-285 -494h230v-125h-299l-47 -77v-132h346v-122h-346v-285h223v-123h-641v123h221v285h-346v122h346v129l-47 80h-299v125h229l-284 494h-66z" />
<glyph unicode="&#xa9;" vert-adv-y="2463" d="M61 739q0 352 152 565.5t401.5 213.5t401 -213t151.5 -564q0 -354 -151 -567q-150 -211 -410 -211q-217 0 -360 172q-185 221 -185 604zM184 741q0 -293 119 -481q117 -186 307 -186q175 0 289 147q145 188 145 520q0 299 -118 482q-119 184 -311.5 184t-311.5 -184 q-119 -183 -119 -482zM287 733q0 203 98 322q98 123 264 123q98 0 203 -27l16 -4v-184h-86v92q-74 25 -129 24q-109 0 -176 -94q-68 -96 -67 -244q0 -158 71 -247q74 -92 199 -93q98 0 192 50v-107l-20 -8q-111 -45 -201 -45q-160 0 -262 123q-102 120 -102 319z" />
<glyph unicode="&#xad;" vert-adv-y="2463" d="M147 543v147h934v-147h-934z" />
<glyph unicode="&#xae;" vert-adv-y="2463" d="M61 739q0 352 152 565.5t401.5 213.5t401 -213t151.5 -564q0 -354 -151 -567q-150 -211 -410 -211q-217 0 -360 172q-185 221 -185 604zM184 741q0 -293 119 -481q117 -186 307 -186q175 0 289 147q145 188 145 520q0 299 -118 482q-119 184 -311.5 184t-311.5 -184 q-119 -183 -119 -482zM365 317v70h61v707h-61v69h272q217 0 217 -207q0 -154 -149 -233l184 -336h24v-70h-118l-195 369h-63v-299h73v-70h-245zM537 758h8q184 0 184 188q0 84 -35 115q-33 33 -121 33h-36v-336z" />
<glyph unicode="&#xb4;" vert-adv-y="2463" d="M391 1282l217 322h228l-322 -322h-123z" />
<glyph unicode="&#x2000;" horiz-adv-x="800" vert-adv-y="0" />
<glyph unicode="&#x2001;" horiz-adv-x="1603" vert-adv-y="0" />
<glyph unicode="&#x2002;" horiz-adv-x="800" vert-adv-y="0" />
<glyph unicode="&#x2003;" horiz-adv-x="1603" vert-adv-y="0" />
<glyph unicode="&#x2004;" horiz-adv-x="532" vert-adv-y="0" />
<glyph unicode="&#x2005;" horiz-adv-x="399" vert-adv-y="0" />
<glyph unicode="&#x2006;" horiz-adv-x="266" vert-adv-y="0" />
<glyph unicode="&#x2007;" horiz-adv-x="266" vert-adv-y="0" />
<glyph unicode="&#x2008;" horiz-adv-x="198" vert-adv-y="0" />
<glyph unicode="&#x2009;" horiz-adv-x="319" vert-adv-y="0" />
<glyph unicode="&#x200a;" horiz-adv-x="88" vert-adv-y="0" />
<glyph unicode="&#x2010;" vert-adv-y="2463" d="M147 543v147h934v-147h-934z" />
<glyph unicode="&#x2011;" vert-adv-y="2463" d="M147 543v147h934v-147h-934z" />
<glyph unicode="&#x2012;" vert-adv-y="2463" d="M147 543v147h934v-147h-934z" />
<glyph unicode="&#x2013;" vert-adv-y="2463" d="M121 543v147h987v-147h-987z" />
<glyph unicode="&#x2014;" vert-adv-y="2463" d="M0 543v123h1229v-123h-1229z" />
<glyph unicode="&#x2018;" vert-adv-y="2463" d="M455 963v180q4 418 295 436v-98q-76 -12 -97 -68q-20 -47 -26 -156h123v-294h-295z" />
<glyph unicode="&#x2019;" vert-adv-y="2463" d="M479 963v98q76 12 96 67q20 47 27 154h-123v297h295v-180q-4 -418 -295 -436z" />
<glyph unicode="&#x201c;" vert-adv-y="2463" d="M231 1036v248q0 283 248 295v-98q-104 -22 -104 -142v-57h104v-246h-248zM725 1036v248q0 283 248 295v-98q-106 -23 -107 -142v-57h107v-246h-248z" />
<glyph unicode="&#x201d;" vert-adv-y="2463" d="M256 1036v99q106 23 106 141v55h-106v248h248v-250q0 -281 -248 -293zM750 1036v99q104 22 104 141v55h-104v248h247v-250q1 -281 -247 -293z" />
<glyph unicode="&#x2022;" vert-adv-y="2463" d="M317 813q0 123 89 211q86 86 208.5 86t208.5 -86t86 -209q0 -125 -86 -211t-211 -86q-111 0 -188 70q-107 94 -107 225z" />
<glyph unicode="&#x2026;" vert-adv-y="2463" d="M82 0v248h246v-248h-246zM492 0v248h245v-248h-245zM899 0v248h248v-248h-248z" />
<glyph unicode="&#x202f;" horiz-adv-x="319" vert-adv-y="0" />
<glyph unicode="&#x205f;" horiz-adv-x="399" vert-adv-y="0" />
<glyph unicode="&#x20ac;" vert-adv-y="2463" d="M6 537l51 122h68l-2 89l-2 12q0 2 2 8v3q0 3 1 8t1 12v24l2 25v16h-121l51 125h86q43 180 86 256q154 281 496 281q160 0 381 -66v-281h-123l-29 170q-117 53 -225 54q-193 0 -291 -172q-49 -86 -80 -242h668l-49 -125h-635q0 -14 -1 -30.5t-2 -25.5t-1 -16q0 -12 -2 -23 v-3v-19v-6l2 -74h557l-51 -122h-494q23 -123 66 -218q109 -221 346 -221q180 0 364 135v-159q-206 -111 -387 -111q-238 0 -391 141q-106 96 -162 252q-23 61 -47 181h-133z" />
<glyph unicode="&#x2122;" vert-adv-y="2463" d="M43 1288v193h463v-193h-88v101h-88v-555h78v-95h-267v95h78v555h-88v-101h-88zM555 739v95h57v555h-57v92h213l121 -445l106 445h201v-92h-57v-555h57v-95h-164v580l-117 -442h-86l-114 411h-2v-549h-158z" />
<glyph unicode="&#xe000;" horiz-adv-x="1085" vert-adv-y="2169" d="M0 1085h1085v-1085h-1085v1085z" />
<glyph unicode="&#xf001;" vert-adv-y="2463" d="M70 0v123h123v815h-117v135h117v174q0 162 86 260q84 96 229 97q95 0 215 -50v-208h-123l-25 122q-37 18 -65 19q-121 0 -121 -187v-227h655v-950h123v-123h-419v123h98v815h-457v-815h113v-123h-432zM846 1346v196h198v-196h-198z" />
<glyph unicode="&#xfb01;" vert-adv-y="2463" d="M70 0v123h123v815h-117v135h117v174q0 162 86 260q84 96 229 97q95 0 215 -50v-208h-123l-25 122q-37 18 -65 19q-121 0 -121 -187v-227h655v-950h123v-123h-419v123h98v815h-457v-815h113v-123h-432zM846 1346v196h198v-196h-198z" />
<glyph unicode="&#xf002;" vert-adv-y="2463" d="M70 0v123h123v803h-117v135h117v186q0 356 395 357q78 0 196 -17l62 -8h196v-1456h125v-123h-419v123h98v1327q-135 37 -248 37q-119 0 -164 -39q-45 -41 -45 -148v-239h297v-135h-297v-803h113v-123h-432z" />
<glyph unicode="&#xfb02;" vert-adv-y="2463" d="M70 0v123h123v803h-117v135h117v186q0 356 395 357q78 0 196 -17l62 -8h196v-1456h125v-123h-419v123h98v1327q-135 37 -248 37q-119 0 -164 -39q-45 -41 -45 -148v-239h297v-135h-297v-803h113v-123h-432z" />
<glyph unicode="&#xfb03;" horiz-adv-x="3686" vert-adv-y="2463" d="M2605 0v123h392v840h-392v122h588v-962h371v-123h-959zM2986 1331v248h222v-248h-222zM1376 0v123h273v803h-273v135h273v119q0 225 90 323q92 100 293 101q172 0 364 -80v-246h-123l-30 156q-104 47 -185 47q-120 0 -165 -62q-47 -63 -48 -219v-139h445v-135h-445v-803 h371v-123h-840zM147 0v123h273v803h-273v135h273v119q0 225 90 323q92 100 293 101q172 0 364 -80v-246h-123l-30 156q-104 47 -185 47q-120 0 -165 -62q-47 -63 -48 -219v-139h445v-135h-445v-803h371v-123h-840z" />
<glyph unicode="&#xfb04;" horiz-adv-x="3686" vert-adv-y="2463" d="M2605 0v123h392v1333h-392v123h588v-1456h371v-123h-959zM1376 0v123h273v803h-273v135h273v119q0 225 90 323q92 100 293 101q172 0 364 -80v-246h-123l-30 156q-104 47 -185 47q-120 0 -165 -62q-47 -63 -48 -219v-139h445v-135h-445v-803h371v-123h-840zM147 0v123 h273v803h-273v135h273v119q0 225 90 323q92 100 293 101q172 0 364 -80v-246h-123l-30 156q-104 47 -185 47q-120 0 -165 -62q-47 -63 -48 -219v-139h445v-135h-445v-803h371v-123h-840z" />
</font>
</defs>
</svg>
